<?xml version="1.0" standalone="no"?>
<!DOCTYPE svg PUBLIC "-//W3C//DTD SVG 20010904//EN"
 "http://www.w3.org/TR/2001/REC-SVG-20010904/DTD/svg10.dtd">
<svg version="1.0" xmlns="http://www.w3.org/2000/svg"
 width="860.000000pt" height="860.000000pt" viewBox="0 0 860.000000 860.000000"
 preserveAspectRatio="xMidYMid meet">
<metadata>
Created by potrace 1.11, written by Peter Selinger 2001-2013
</metadata>
<g transform="translate(0.000000,860.000000) scale(0.100000,-0.100000)"
fill="#000000" stroke="none">
<path d="M4280 5980 c-19 -5 -45 -10 -56 -13 -50 -12 -129 -62 -177 -110 -67
-68 -87 -94 -87 -112 0 -7 -4 -17 -10 -20 -15 -9 -41 -104 -47 -175 -4 -53 3
-124 20 -185 13 -49 68 -135 117 -186 257 -259 689 -125 765 237 49 237 -84
474 -309 549 -57 18 -165 26 -216 15z"/>
<path d="M2104 5961 c-3 -3 -12 -6 -21 -7 -114 -17 -245 -109 -307 -217 -83
-143 -88 -323 -12 -469 93 -179 288 -277 479 -241 187 34 332 178 372 368 17
83 10 187 -17 254 -6 14 -12 32 -14 39 -5 27 -58 98 -111 150 -61 60 -136 98
-228 117 -38 8 -135 12 -141 6z"/>
<path d="M6493 5948 c-252 -37 -437 -325 -369 -575 8 -28 11 -54 8 -57 -3 -3
0 -6 6 -6 7 0 11 -3 10 -7 -8 -36 103 -172 181 -222 130 -82 301 -92 434 -24
61 31 69 36 130 98 85 86 135 212 131 335 -2 91 -10 125 -49 206 -88 182 -278
282 -482 252z"/>
<path d="M6386 4752 l-120 -3 -25 -32 c-14 -17 -36 -41 -48 -54 -12 -12 -27
-31 -35 -41 -13 -18 -83 -104 -103 -126 -6 -6 -30 -36 -55 -66 -25 -30 -47
-57 -50 -60 -3 -3 -46 -54 -95 -115 -49 -60 -103 -126 -120 -146 -16 -19 -48
-57 -69 -83 -22 -26 -129 -156 -238 -289 -109 -133 -198 -244 -198 -247 0 -5
150 -200 188 -245 9 -11 44 -54 76 -95 33 -41 63 -79 67 -84 8 -9 70 51 139
135 19 22 46 53 60 68 14 15 41 46 60 68 19 22 63 71 97 109 34 38 71 80 83
94 24 28 130 146 173 193 15 16 27 26 28 21 2 -15 0 -429 -2 -434 -1 -3 0 -9
1 -15 6 -26 5 -97 -1 -101 -4 -2 -4 -17 1 -33 4 -16 6 -32 4 -34 -6 -6 -6
-575 0 -585 5 -9 649 -7 664 2 12 7 5 2175 -7 2194 -6 9 -189 11 -475 4z"/>
<path d="M1859 4725 c0 -11 -1 -505 -3 -1097 -2 -964 0 -1078 14 -1079 8 -1
156 -2 328 -3 l312 -2 1 56 c1 30 3 219 4 420 4 519 9 750 16 750 3 0 37 -37
75 -82 38 -46 73 -88 79 -94 5 -6 29 -33 52 -60 23 -27 53 -62 68 -79 14 -16
49 -58 77 -92 28 -35 55 -63 60 -63 4 0 8 -6 8 -14 0 -8 4 -16 8 -18 5 -1 38
-37 73 -78 35 -41 73 -85 83 -97 11 -13 23 -23 27 -23 4 0 33 33 65 73 33 39
62 74 65 77 14 11 202 246 207 259 3 7 1 16 -4 20 -5 3 -36 40 -68 81 -33 41
-65 82 -73 90 -7 8 -30 36 -50 61 -21 26 -52 64 -69 85 -27 33 -83 102 -141
174 -43 53 -137 168 -152 185 -9 11 -75 92 -146 180 -71 88 -134 165 -140 171
-5 6 -50 59 -99 117 l-88 105 -294 -1 c-288 -1 -294 -2 -295 -22z"/>
<path d="M3778 4708 c-21 -21 -38 -40 -38 -43 0 -3 -12 -18 -27 -33 -30 -30
-30 -30 -214 -262 -67 -85 -125 -157 -129 -160 -3 -3 -36 -43 -72 -90 l-66
-85 53 -67 c29 -38 65 -83 81 -102 16 -19 72 -88 124 -154 l95 -120 89 94 c49
52 91 92 94 89 3 -3 7 -269 8 -592 2 -324 4 -597 4 -609 l0 -21 580 -2 580 -2
1 163 c4 631 7 1064 8 1068 0 2 41 -37 89 -88 l89 -92 40 48 c56 66 208 249
241 290 15 19 37 46 49 60 26 31 24 37 -56 137 -31 38 -59 74 -63 80 -5 5 -24
28 -43 50 -19 22 -35 43 -35 47 0 4 -6 13 -13 20 -14 14 -128 156 -167 208
-14 18 -35 44 -48 59 -13 14 -46 54 -74 88 l-51 63 -546 -3 -546 -2 -37 -37z"/>
</g>
</svg>
