<?xml version="1.0" encoding="UTF-8" standalone="no"?>
<!-- Created with Inkscape (http://www.inkscape.org/) -->

<svg
   xmlns:dc="http://purl.org/dc/elements/1.1/"
   xmlns:cc="http://creativecommons.org/ns#"
   xmlns:rdf="http://www.w3.org/1999/02/22-rdf-syntax-ns#"
   xmlns:svg="http://www.w3.org/2000/svg"
   xmlns="http://www.w3.org/2000/svg"
   xmlns:sodipodi="http://sodipodi.sourceforge.net/DTD/sodipodi-0.dtd"
   xmlns:inkscape="http://www.inkscape.org/namespaces/inkscape"
   width="121.44375mm"
   height="97.102081mm"
   viewBox="0 0 121.44375 97.102081"
   version="1.1"
   id="svg8"
   sodipodi:docname="MorrisMindset.svg"
   inkscape:version="0.92.2 5c3e80d, 2017-08-06">
  <defs
     id="defs2">
    <inkscape:perspective
       sodipodi:type="inkscape:persp3d"
       inkscape:vp_x="0 : 48.55104 : 1"
       inkscape:vp_y="0 : 1000 : 0"
       inkscape:vp_z="121.44375 : 48.55104 : 1"
       inkscape:persp3d-origin="60.721875 : 32.36736 : 1"
       id="perspective3792" />
  </defs>
  <sodipodi:namedview
     id="base"
     pagecolor="#ffffff"
     bordercolor="#666666"
     borderopacity="1.0"
     inkscape:pageopacity="0.0"
     inkscape:pageshadow="2"
     inkscape:zoom="0.87465942"
     inkscape:cx="140.08746"
     inkscape:cy="201.5366"
     inkscape:document-units="mm"
     inkscape:current-layer="layer1"
     showgrid="false"
     inkscape:measure-start="0,0"
     inkscape:measure-end="0,0"
     inkscape:snap-bbox="true"
     inkscape:window-width="1440"
     inkscape:window-height="855"
     inkscape:window-x="0"
     inkscape:window-y="1"
     inkscape:window-maximized="1" />
  <metadata
     id="metadata5">
    <rdf:RDF>
      <cc:Work
         rdf:about="">
        <dc:format>image/svg+xml</dc:format>
        <dc:type
           rdf:resource="http://purl.org/dc/dcmitype/StillImage" />
        <dc:title></dc:title>
      </cc:Work>
    </rdf:RDF>
  </metadata>
  <g
     inkscape:label="Laag 1"
     inkscape:groupmode="layer"
     id="layer1"
     transform="translate(-40.575748,-32.246582)"
     style="opacity:1">
    <ellipse
       style="fill:#008080;stroke-width:0.26458332"
       id="path3832"
       cx="71.065041"
       cy="63.897938"
       rx="6.481286"
       ry="6.6817379"
       inkscape:transform-center-x="6.7394042"
       inkscape:transform-center-y="0.21807108" />
    <ellipse
       style="fill:#ffffff;stroke-width:0.26458332"
       id="path3834"
       cx="70.980606"
       cy="63.999977"
       rx="4.9444861"
       ry="5.1449385"
       inkscape:transform-center-x="6.672586"
       inkscape:transform-center-y="0.01761255" />
    <ellipse
       style="fill:#008080;stroke-width:0.26458332"
       id="path3832-9"
       cx="102.05386"
       cy="63.555195"
       rx="6.481286"
       ry="6.6817379"
       inkscape:transform-center-x="6.7394042"
       inkscape:transform-center-y="0.21807108" />
    <ellipse
       style="fill:#ffffff;stroke-width:0.26458332"
       id="path3834-3"
       cx="101.96943"
       cy="63.65723"
       rx="4.9444861"
       ry="5.1449385"
       inkscape:transform-center-x="6.672586"
       inkscape:transform-center-y="0.01761255" />
    <ellipse
       style="fill:#008080;stroke-width:0.26458332"
       id="path3832-8"
       cx="133.2916"
       cy="64.008949"
       rx="6.481286"
       ry="6.6817379"
       inkscape:transform-center-x="6.7394042"
       inkscape:transform-center-y="0.21807108" />
    <ellipse
       style="fill:#ffffff;stroke-width:0.26458332"
       id="path3834-0"
       cx="133.20717"
       cy="64.110985"
       rx="4.9444861"
       ry="5.1449385"
       inkscape:transform-center-x="6.672586"
       inkscape:transform-center-y="0.01761255" />
    <path
       style="fill:#008080;stroke-width:0.15124935"
       d="m 66.672151,89.895271 c 0.006,-8.768337 0.06692,-15.334255 0.140621,-15.162747 0.113525,0.264186 0.131334,0.268436 0.140618,0.03354 0.0099,-0.251082 0.27635,-0.268066 4.008043,-0.255503 l 3.997415,0.01347 0.575239,0.702003 c 0.316383,0.386104 0.576429,0.807183 0.577879,0.935734 0.0013,0.12855 0.09321,0.233904 0.203893,0.234119 0.263255,5.29e-4 0.647758,0.530915 0.52678,0.726665 -0.05178,0.08379 -0.02535,0.10981 0.05876,0.05783 0.0841,-0.05198 0.381362,0.192739 0.66058,0.543814 0.279217,0.351078 0.55741,0.659733 0.618206,0.685906 0.0608,0.02617 0.07198,0.148064 0.02487,0.270873 -0.05314,0.138469 -0.0068,0.206573 0.121934,0.179289 0.114188,-0.02421 0.1906,0.04108 0.169804,0.145063 -0.0208,0.103984 0.04124,0.172046 0.137861,0.151249 0.09662,-0.0208 0.215728,0.119346 0.264686,0.311425 0.04896,0.19208 0.157076,0.361405 0.240263,0.376275 0.08319,0.01487 0.523343,0.470273 0.978125,1.012007 0.454782,0.541732 0.888892,1.028407 0.964687,1.081495 0.07579,0.05309 0.09,0.173887 0.03157,0.268436 -0.06157,0.09963 -0.02201,0.154432 0.09406,0.130347 0.110167,-0.02286 0.183287,0.04352 0.162491,0.147503 -0.0208,0.103983 0.06428,0.18906 0.189064,0.18906 0.12478,0 0.226872,0.05174 0.226872,0.114983 0,0.06324 0.17291,0.301458 0.384244,0.529373 0.211336,0.227915 0.350189,0.41439 0.308567,0.41439 -0.04162,0 0.188979,0.286618 0.512445,0.636929 0.323467,0.350311 0.548434,0.701138 0.499933,0.779616 -0.0485,0.07848 -0.02043,0.100812 0.06238,0.04963 0.18769,-0.115999 0.850786,0.755213 0.727112,0.95532 -0.04972,0.08045 -0.0019,0.115086 0.106513,0.07696 0.220271,-0.07754 2.037038,2.22473 1.97035,2.496894 -0.02286,0.09328 0.02223,0.130196 0.100158,0.08202 0.07795,-0.04817 0.367138,0.202001 0.642649,0.555942 0.275513,0.353941 0.562456,0.686967 0.637656,0.740055 0.07519,0.05309 0.08346,0.182716 0.01836,0.288058 -0.07351,0.118948 -0.05733,0.153805 0.0427,0.09198 0.21381,-0.132143 1.732229,1.69236 1.597358,1.919356 -0.334163,0.562409 -0.718338,0.984626 -0.831993,0.914382 -0.07202,-0.04451 -0.113323,-0.02482 -0.09179,0.04375 0.06484,0.206489 -1.451893,2.153635 -1.682797,2.160334 -0.117846,0.0034 -0.170791,0.04969 -0.117653,0.102827 0.05314,0.05314 -0.06513,0.288843 -0.262823,0.523785 -0.197692,0.234943 -0.394801,0.514761 -0.438015,0.621819 -0.061,0.151096 -0.115099,0.143886 -0.2418,-0.03222 -0.131916,-0.183361 -0.155882,-0.154355 -0.124953,0.151249 0.02397,0.236832 -0.03237,0.363993 -0.150791,0.340313 -0.103984,-0.0208 -0.172045,0.04099 -0.151249,0.1373 0.06905,0.319794 -0.997294,0.234696 -1.246632,-0.09949 -0.124135,-0.166375 -0.209211,-0.353546 -0.189061,-0.415935 0.02016,-0.06239 -0.01442,-0.09642 -0.0768,-0.07563 -0.06239,0.0208 -0.134043,-0.0099 -0.159229,-0.06817 -0.02519,-0.05829 -0.246126,-0.320445 -0.490982,-0.582562 -0.244856,-0.26212 -0.40636,-0.539409 -0.358902,-0.616199 0.04746,-0.07679 0.02241,-0.120917 -0.05566,-0.09806 -0.204221,0.05979 -1.396293,-1.418915 -1.286756,-1.596154 0.05044,-0.08162 0.02058,-0.104429 -0.06636,-0.0507 -0.08694,0.05373 -0.262924,-0.06233 -0.391072,-0.257908 -0.128151,-0.19558 -0.344644,-0.467246 -0.481098,-0.603697 -0.13645,-0.136454 -0.196193,-0.248097 -0.13276,-0.248097 0.06344,0 0.01185,-0.08508 -0.114651,-0.189061 -0.126495,-0.103984 -0.598925,-0.631468 -1.049843,-1.172183 -0.450916,-0.540716 -0.859698,-1.017151 -0.908402,-1.058747 -0.0487,-0.04159 -0.150797,-0.184819 -0.226872,-0.318277 -0.07608,-0.133459 -0.376542,-0.533816 -0.667698,-0.88968 -0.291155,-0.355865 -0.688562,-0.842214 -0.883129,-1.080778 -0.365326,-0.447937 -0.777949,-0.576697 -0.784137,-0.24469 -0.0019,0.103984 -0.0021,4.136668 -2.65e-4,8.961522 0.0021,5.797877 -0.04717,8.695537 -0.145409,8.545587 -0.09937,-0.15165 -0.149416,-0.16419 -0.150966,-0.0378 -0.0019,0.14685 -0.981628,0.18906 -4.388544,0.18906 h -4.386233 z"
       id="path3960"
       inkscape:connector-curvature="0" />
    <path
       style="fill:#008080;stroke-width:0.15124935"
       d="m 93.886404,96.434403 v -8.926116 l -0.45558,0.03472 c -0.250571,0.0191 -0.43012,0.105252 -0.399,0.191463 0.05414,0.149972 -0.73733,1.346184 -1.298443,1.962449 -0.146833,0.161264 -0.266967,0.340874 -0.266967,0.399132 0,0.05826 -0.119107,0.09647 -0.264687,0.08492 -0.322624,-0.02561 -0.819843,-0.537546 -0.70405,-0.724898 0.04605,-0.07451 -0.0064,-0.116774 -0.116579,-0.09391 -0.110167,0.02286 -0.183287,-0.04352 -0.162491,-0.147502 0.0208,-0.103984 -0.01323,-0.172048 -0.07563,-0.151249 -0.06239,0.0208 -0.134649,-0.0093 -0.160578,-0.06684 -0.02593,-0.05756 -0.316614,-0.390774 -0.645969,-0.740482 -0.329354,-0.34971 -0.57245,-0.662212 -0.540208,-0.694452 0.03224,-0.03224 -0.175609,-0.292843 -0.461883,-0.579117 -0.286277,-0.286277 -0.477369,-0.590285 -0.424657,-0.675582 0.05272,-0.08529 -0.0024,-0.15508 -0.12256,-0.15508 -0.229391,0 -0.801103,-0.742191 -0.73683,-0.956551 0.02056,-0.06857 -0.02492,-0.08617 -0.101071,-0.03911 -0.07615,0.04706 -0.251457,-0.0869 -0.389578,-0.297698 -0.247083,-0.377095 -0.238667,-0.398383 0.522592,-1.322131 0.425545,-0.516377 0.854403,-1.041186 0.953016,-1.166241 0.09862,-0.125055 0.406477,-0.516736 0.684138,-0.870402 0.277662,-0.353666 0.577443,-0.59816 0.666179,-0.543317 0.09733,0.06015 0.116896,0.0278 0.04932,-0.08153 -0.139878,-0.226327 0.194564,-0.653167 0.408283,-0.521081 0.08829,0.05457 0.112591,0.02468 0.05531,-0.068 -0.0562,-0.09093 0.0074,-0.226671 0.141431,-0.301651 0.133985,-0.07498 0.254523,-0.198273 0.267869,-0.273984 0.01333,-0.07571 0.08037,-0.118949 0.148939,-0.09609 0.06857,0.02286 0.08652,-0.02019 0.03987,-0.09566 -0.123462,-0.199769 0.510789,-0.950138 0.702799,-0.831469 0.09177,0.05672 0.118978,0.03 0.0625,-0.06138 -0.055,-0.089 0.08762,-0.387855 0.316942,-0.66413 0.229319,-0.276276 0.495982,-0.605335 0.592584,-0.731243 0.0966,-0.125907 0.612987,-0.773419 1.147525,-1.438918 l 0.971888,-1.209992 4.221827,-0.03693 c 2.431955,-0.02127 4.134825,0.01881 4.016615,0.09453 -0.14168,0.09076 -0.15384,0.163203 -0.0393,0.234016 0.11865,0.07333 0.16594,4.432673 0.16591,15.295088 l -4e-5,15.192535 h -4.384745 -4.384741 z m 0.254569,-7.588425 c -0.04828,-0.120658 -0.08412,-0.08482 -0.09138,0.09138 -0.0066,0.159444 0.02918,0.248775 0.07944,0.198515 0.05026,-0.05026 0.05563,-0.180711 0.01193,-0.289894 z"
       id="path3962"
       inkscape:connector-curvature="0" />
    <path
       style="fill:#008080;stroke-width:0.15124935"
       d="M 103.11261,89.933082 V 74.505649 h 3.31478 3.31478 l 0.50427,0.636881 c 0.27735,0.350287 0.48452,0.72354 0.46038,0.829456 -0.0241,0.105918 0.0439,0.159596 0.15125,0.119287 0.10766,-0.04044 0.36463,0.176099 0.57326,0.483063 0.20796,0.305993 0.44661,0.629325 0.53033,0.718513 0.57579,0.613442 0.97093,1.192334 0.89631,1.313088 -0.0483,0.0782 -0.0222,0.123486 0.0582,0.100629 0.19953,-0.05679 0.79813,0.645006 0.69394,0.813583 -0.0461,0.07451 -0.0276,0.116771 0.0409,0.09391 0.0686,-0.02286 0.14653,0.0265 0.17324,0.109688 0.0267,0.08319 0.14725,0.206481 0.26787,0.273984 0.12062,0.0675 0.17293,0.203626 0.11625,0.302498 -0.0567,0.09887 -0.05,0.131961 0.0148,0.07353 0.16278,-0.146703 0.57764,0.293997 0.45839,0.486945 -0.0531,0.08589 -0.0308,0.137456 0.0495,0.114599 0.14774,-0.04205 0.47978,0.294031 1.21296,1.227719 0.22158,0.282168 0.6581,0.825418 0.97005,1.207223 0.31195,0.381804 0.57569,0.746482 0.58609,0.810397 0.0104,0.06392 0.0319,0.201287 0.0478,0.305271 0.0455,0.29722 -0.21752,0.736576 -0.38057,0.635805 -0.0811,-0.05011 -0.13059,-0.035 -0.11003,0.03357 0.0679,0.226518 -0.49202,0.923465 -0.80839,1.006197 -0.17087,0.04468 -0.26585,0.153768 -0.21107,0.242409 0.0971,0.15712 -0.43883,0.904915 -1.35479,1.890363 -0.24956,0.268491 -0.48778,0.550892 -0.52937,0.627557 -0.0416,0.07666 -0.12667,0.122373 -0.18906,0.101577 -0.0624,-0.0208 -0.0964,0.04726 -0.0756,0.151249 0.0208,0.103984 -0.0473,0.172045 -0.15125,0.151249 -0.10398,-0.0208 -0.17257,0.01323 -0.15242,0.07562 0.0655,0.202856 -0.40772,0.717875 -0.67945,0.739442 -0.14558,0.01156 -0.26469,-0.02666 -0.26469,-0.08492 0,-0.05826 -0.12013,-0.237868 -0.26696,-0.399132 -0.56112,-0.616265 -1.35258,-1.812477 -1.29845,-1.962449 0.0311,-0.08621 -0.14842,-0.17237 -0.39899,-0.191463 -0.28403,-0.02164 -0.45648,0.03739 -0.45795,0.15675 -10e-4,0.105304 -2.6e-4,4.122055 0.002,8.926113 l 0.005,8.73465 h -3.55669 -3.5567 z"
       id="path3964"
       inkscape:connector-curvature="0" />
    <path
       style="fill:#008080;stroke-width:0.15124935"
       d="m 128.37457,96.739303 c 8e-4,-4.783261 2.7e-4,-8.815945 -0.001,-8.961524 -0.001,-0.145577 -0.0984,-0.264687 -0.21581,-0.264687 -0.18612,0 -0.44826,0.264901 -1.19737,1.209995 -1.17712,1.485075 -2.5667,3.18397 -2.87629,3.516548 -0.21296,0.228764 -0.35155,0.415936 -0.30799,0.415936 0.0436,0 -0.0324,0.111643 -0.16889,0.248097 -0.13645,0.136451 -0.35294,0.408117 -0.48109,0.603697 -0.12815,0.195583 -0.30414,0.31164 -0.39108,0.257908 -0.0869,-0.05373 -0.1168,-0.03092 -0.0664,0.0507 0.10954,0.177239 -1.08253,1.655945 -1.28675,1.596154 -0.0781,-0.02286 -0.10312,0.02127 -0.0557,0.09806 0.0475,0.07679 -0.11405,0.354079 -0.3589,0.616199 -0.24486,0.262117 -0.4658,0.524272 -0.49099,0.582562 -0.0252,0.05829 -0.0968,0.08897 -0.15923,0.06817 -0.0624,-0.0208 -0.0969,0.01323 -0.0768,0.07563 0.0202,0.06239 -0.0649,0.24956 -0.18907,0.415935 -0.24934,0.334185 -1.31568,0.419283 -1.24663,0.09949 0.0208,-0.09631 -0.0473,-0.158099 -0.15125,-0.1373 -0.10398,0.0208 -0.1805,-0.07591 -0.17005,-0.214916 0.0118,-0.156355 -0.0603,-0.222279 -0.18906,-0.172879 -0.11444,0.04392 -0.20807,0.0097 -0.20807,-0.07598 0,-0.0857 -0.16826,-0.355788 -0.37391,-0.600189 -0.20564,-0.244398 -0.33042,-0.487839 -0.27729,-0.540978 0.0531,-0.05314 2e-4,-0.09941 -0.11765,-0.102827 -0.22314,-0.0065 -1.74859,-1.950289 -1.68654,-2.149092 0.0195,-0.06239 -0.028,-0.09642 -0.1054,-0.07562 -0.21014,0.05643 -0.92354,-0.964197 -0.80868,-1.156943 0.32281,-0.541729 1.17558,-1.423699 1.30139,-1.345949 0.0817,0.05051 0.10638,0.02355 0.0548,-0.05989 -0.0516,-0.08344 0.0236,-0.281127 0.16705,-0.439303 0.14345,-0.158176 0.48738,-0.577181 0.7643,-0.931122 0.27691,-0.353941 0.56726,-0.604115 0.6452,-0.555942 0.0779,0.04817 0.12301,0.01127 0.10016,-0.08202 -0.0667,-0.272164 1.75008,-2.57443 1.97035,-2.496894 0.1083,0.03812 0.15349,-0.0011 0.10041,-0.08683 -0.11347,-0.183597 0.21249,-0.626576 0.38335,-0.520975 0.0644,0.03978 0.10771,-0.04605 0.0963,-0.190728 -0.0115,-0.145492 0.0688,-0.244486 0.17957,-0.221499 0.11017,0.02286 0.16608,-0.01381 0.12425,-0.0815 -0.0418,-0.06769 0.18859,-0.409684 0.51206,-0.759995 0.32346,-0.350311 0.55406,-0.636929 0.51244,-0.636929 -0.0416,0 0.0972,-0.186475 0.30857,-0.41439 0.21133,-0.227915 0.38424,-0.466132 0.38424,-0.529373 0,-0.06324 0.10611,-0.114983 0.2358,-0.114983 0.12969,0 0.20011,-0.05776 0.15648,-0.128344 -0.0436,-0.07059 0.0384,-0.25776 0.18225,-0.415935 0.14387,-0.158176 0.66313,-0.764027 1.15392,-1.346338 0.49079,-0.582311 0.93224,-1.037712 0.981,-1.012007 0.0488,0.02572 0.12872,-0.110419 0.17768,-0.302498 0.049,-0.19208 0.16807,-0.332222 0.26469,-0.311426 0.0966,0.0208 0.15865,-0.04726 0.13785,-0.151249 -0.0208,-0.103984 0.0556,-0.169262 0.16981,-0.145063 0.12875,0.02728 0.17507,-0.04082 0.12193,-0.179289 -0.0471,-0.122809 -0.0365,-0.244703 0.0235,-0.270873 0.0601,-0.02617 0.43858,-0.455956 0.84113,-0.95508 0.40255,-0.499123 0.86326,-0.95754 1.0238,-1.018701 0.16053,-0.06116 0.27169,-0.199144 0.247,-0.306623 -0.0247,-0.107476 0.21509,-0.512659 0.53281,-0.900401 l 0.57769,-0.704985 3.92498,-0.01368 c 3.5672,-0.01241 3.93401,0.0098 4.02398,0.244303 0.0898,0.233926 0.10963,0.230807 0.21316,-0.03347 0.0628,-0.160293 0.11896,6.66792 0.1248,15.173806 l 0.0106,15.465246 h -4.38623 c -3.40692,0 -4.38675,-0.0422 -4.38855,-0.18906 -0.002,-0.12628 -0.0515,-0.11372 -0.15031,0.0378 -0.0974,0.14931 -0.14751,-2.7462 -0.14656,-8.469964 z"
       id="path3966"
       inkscape:connector-curvature="0" />
    <path
       style="fill:#008080;stroke-width:0.15124935"
       d="m 103.03418,89.933082 c 0,-8.526682 0.0183,-12.014869 0.0406,-7.751529 0.0223,4.263342 0.0223,11.239717 0,15.503059 -0.0223,4.263338 -0.0406,0.775152 -0.0406,-7.75153 z"
       id="path3968"
       inkscape:connector-curvature="0" />
    <path
       style="fill:#008080;stroke-width:0.15124935"
       d="m 102.88293,89.933082 c 0,-8.526682 0.0183,-12.014869 0.0406,-7.751529 0.0223,4.263342 0.0223,11.239717 0,15.503059 -0.0223,4.263338 -0.0406,0.775152 -0.0406,-7.75153 z"
       id="path3970"
       inkscape:connector-curvature="0" />
    <path
       style="fill:#008080;stroke-width:0.15124935"
       d="M 103.11261,89.933082 V 74.505649 h 3.30185 3.30185 l 0.47938,0.667536 c 0.26367,0.367144 0.47939,0.741487 0.47939,0.831871 0,0.09038 0.0975,0.164335 0.21658,0.164335 0.11911,0 0.3706,0.221203 0.55885,0.491562 0.18825,0.270356 0.56723,0.759044 0.84217,1.085969 0.27494,0.326927 0.49989,0.657442 0.49989,0.734481 0,0.07704 0.17016,0.273912 0.37813,0.437499 0.20796,0.163589 0.37812,0.380846 0.37812,0.482798 0,0.101949 0.23606,0.420304 0.52457,0.707456 0.28851,0.28715 0.52673,0.599887 0.52937,0.694971 0.003,0.09508 0.1037,0.21083 0.22457,0.257214 0.37032,0.142103 2.65397,3.11903 2.65397,3.459663 0,0.321217 -0.1132,0.477411 -1.02093,1.40871 -0.27036,0.277376 -0.49156,0.573419 -0.49156,0.657874 0,0.156778 -1.04218,1.440926 -2.02473,2.494822 -0.30058,0.322408 -0.54651,0.641117 -0.54651,0.708242 0,0.06713 -0.14475,0.167987 -0.32165,0.224136 -0.36896,0.117102 -0.70103,-0.223416 -1.59153,-1.63201 -0.4156,-0.657397 -0.63686,-0.869686 -0.90643,-0.869686 h -0.35663 v 8.923713 8.923715 h -3.55436 -3.55436 z"
       id="path3972"
       inkscape:connector-curvature="0" />
    <rect
       style="fill:#008080;stroke-width:0.26458332"
       id="rect3976"
       width="4.0837326"
       height="30.401117"
       x="99.028893"
       y="74.959404" />
    <rect
       style="fill:#979797;fill-opacity:1;stroke-width:0.26458332"
       id="rect3978"
       width="4.0837216"
       height="0.45375139"
       x="99.028893"
       y="74.505653" />
    <rect
       style="fill:#008080;fill-opacity:1;stroke-width:0.26458332"
       id="rect3982"
       width="4.0837326"
       height="0.45375061"
       x="99.028893"
       y="74.505653" />
    <path
       style="fill:none;stroke:#008080;stroke-width:0.26458332px;stroke-linecap:butt;stroke-linejoin:miter;stroke-opacity:1"
       d="m 111.02013,87.792903 1.89062,2.533425 4.80217,-5.785286 -7.99661,-10.035397 -15.425472,0.07563 -7.962164,9.884145 4.802169,5.97435 1.966245,-2.684676"
       id="path5649"
       inkscape:connector-curvature="0" />
    <path
       style="fill:none;stroke:#008080;stroke-width:0.26458332px;stroke-linecap:butt;stroke-linejoin:miter;stroke-opacity:1"
       d="m 66.817508,74.558589 c 8.141341,-0.03456 8.141341,-0.03456 8.141341,-0.03456 l 14.546063,17.768546 -4.688731,5.63404 -8.92371,-10.474018"
       id="path5653"
       inkscape:connector-curvature="0" />
    <path
       style="fill:none;stroke:#008080;stroke-width:0.26458332px;stroke-linecap:butt;stroke-linejoin:miter;stroke-opacity:1"
       d="m 66.661568,105.36052 9.117465,0.0151 0.113438,-17.923043"
       id="path5655"
       inkscape:connector-curvature="0" />
    <path
       style="fill:none;stroke:#008080;stroke-width:0.26458332px;stroke-linecap:butt;stroke-linejoin:miter;stroke-opacity:1"
       d="m 91.130843,90.43977 c 2.755565,-2.931483 2.755565,-2.931483 2.755565,-2.931483"
       id="path5657"
       inkscape:connector-curvature="0" />
    <path
       style="fill:none;stroke:#008080;stroke-width:0.26458332px;stroke-linecap:butt;stroke-linejoin:miter;stroke-opacity:1"
       d="m 112.91075,90.326327 c -2.68942,-2.813235 -2.68942,-2.813235 -2.68942,-2.813235"
       id="path5659"
       inkscape:connector-curvature="0" />
    <path
       style="fill:#008080;fill-opacity:1;stroke:#008080;stroke-width:0.03787188;stroke-miterlimit:4;stroke-dasharray:none;stroke-opacity:1"
       d="m 110.78517,87.891057 c -0.14966,-0.150656 -0.2721,-0.286284 -0.2721,-0.301392 0,-0.07217 0.26664,-0.02093 0.3778,0.07259 0.10716,0.09017 0.11315,0.105822 0.0606,0.158392 -0.0526,0.05257 -0.0487,0.07095 0.0391,0.186016 0.16782,0.220022 0.0776,0.169222 -0.20533,-0.115605 z"
       id="path5661"
       inkscape:connector-curvature="0" />
    <path
       style="fill:#008080;fill-opacity:1;stroke:#008080;stroke-width:0.03787188;stroke-miterlimit:4;stroke-dasharray:none;stroke-opacity:1"
       d="M 103.13967,90.70003 V 76.066066 l 3.9854,0.0019 3.9854,0.0019 3.35964,4.216635 c 1.84781,2.31915 3.364,4.228849 3.36931,4.243774 0.005,0.01492 -0.80927,1.013761 -1.81019,2.219637 -1.00091,1.205873 -2.11127,2.545186 -2.46746,2.976247 l -0.64761,0.783749 -0.20797,-0.22651 c -0.11438,-0.124581 -0.71844,-0.760301 -1.34234,-1.412708 l -1.13437,-1.186198 -0.01,8.824782 -0.01,8.824786 h -3.53537 -3.53538 z m 8.34876,-2.088544 c -0.0508,-0.06759 -0.191,-0.254759 -0.31157,-0.415936 -0.12056,-0.161173 -0.22681,-0.293044 -0.2361,-0.293044 -0.009,0 0.0194,0.05105 0.0639,0.113437 0.0444,0.06239 0.0673,0.113438 0.0508,0.113438 -0.0389,0 -0.54235,-0.499245 -0.54235,-0.537813 0,-0.05792 0.2104,-0.02761 0.33479,0.04823 0.0905,0.05517 0.1215,0.09764 0.10826,0.148278 -0.0129,0.04934 -0.003,0.06483 0.0339,0.05084 0.17351,-0.06658 -0.13487,-0.314531 -0.39117,-0.314531 -0.0888,0 -0.16138,0.01021 -0.16138,0.02267 0,0.02723 1.09955,1.187309 1.12536,1.187309 0.01,0 -0.0236,-0.0553 -0.0744,-0.122891 z"
       id="path5663"
       inkscape:connector-curvature="0" />
    <path
       style="fill:#008080;fill-opacity:1;stroke:#008080;stroke-width:0.03787188;stroke-miterlimit:4;stroke-dasharray:none;stroke-opacity:1"
       d="m 98.536094,105.34345 -4.62248,-0.01 -0.0095,-8.833147 -0.0095,-8.833152 -1.304525,1.389444 c -0.71749,0.764196 -1.339083,1.429636 -1.381321,1.478761 l -0.07679,0.08932 -2.452542,-3.050817 C 87.330484,85.896136 86.225,84.50052 86.222751,84.472712 c -0.0024,-0.02781 1.509575,-1.930413 3.359613,-4.228015 l 3.363703,-4.177461 9.095463,0.0021 9.09546,0.0021 2.28764,2.877368 c 1.25821,1.582552 2.76834,3.481969 3.35585,4.220929 0.58751,0.73896 1.0682,1.354543 1.0682,1.367962 0,0.01341 -0.30005,0.388882 -0.66678,0.834364 -1.13517,1.378931 -4.25566,5.139475 -4.26473,5.139475 -0.005,0 -0.60288,-0.623501 -1.32923,-1.385559 l -1.32063,-1.385562 -0.0229,3.947348 c -0.0126,2.171038 -0.0254,6.138098 -0.0284,8.815689 l -0.005,4.86834 -3.526,-0.009 c -1.9393,-0.005 -5.60611,-0.0137 -8.148476,-0.019 z m -7.40029,-15.169689 c -0.01371,-0.02217 -0.04302,-0.04033 -0.06513,-0.04033 -0.02508,0 -0.0222,0.0217 0.0076,0.05763 0.05186,0.06249 0.09821,0.04854 0.05751,-0.0173 z m -0.640427,-0.824146 c -0.03844,-0.03844 -0.07015,0.01942 -0.03861,0.07046 0.02381,0.03855 0.03273,0.03858 0.04554,1.51e-4 0.0088,-0.02627 0.0056,-0.05805 -0.0069,-0.07061 z m 3.673727,-0.353475 c 0.01114,-0.14618 -0.03726,-0.246536 -0.100172,-0.207658 -0.04562,0.0282 -0.05637,0.204864 -0.01847,0.303617 0.03834,0.0999 0.108009,0.04356 0.118645,-0.09596 z m -0.624962,-1.298001 0.159282,-0.185462 -0.254191,0.0204 c -0.14768,0.01185 -0.296704,0.04826 -0.355645,0.08688 l -0.101449,0.06647 0.08253,0.06683 c 0.04539,0.03676 0.08254,0.07877 0.08254,0.09337 0,0.01461 -0.138795,0.216053 -0.308433,0.447685 -0.16964,0.231632 -0.324879,0.446675 -0.344982,0.477869 -0.05014,0.07782 0.84292,-0.844179 1.040347,-1.074049 z m 17.724888,0.643223 c -0.0847,-0.112175 -0.19023,-0.213431 -0.23453,-0.225015 -0.0551,-0.01442 -0.0102,0.05006 0.14213,0.203952 0.12246,0.123759 0.228,0.225017 0.23453,0.225017 0.007,0 -0.0574,-0.09178 -0.14213,-0.203954 z m -0.24889,-0.546798 c 0.011,-0.01778 -0.0263,-0.07307 -0.0828,-0.122889 l -0.10281,-0.09057 0.0854,0.09734 c 0.047,0.05353 0.0739,0.108836 0.0599,0.122891 -0.014,0.01405 -0.0152,0.02556 -0.003,0.02556 0.0126,0 0.032,-0.01455 0.043,-0.03232 z M 87.939105,86.200949 c 0,-0.0208 -0.01802,-0.03781 -0.04004,-0.03781 -0.02201,0 -0.02953,0.01701 -0.01667,0.03781 0.01286,0.0208 0.03087,0.03782 0.04004,0.03782 0.0092,0 0.01667,-0.01701 0.01667,-0.03782 z m 1.550308,-5.233916 c 0,-0.04192 -0.04873,-0.135435 -0.07058,-0.135435 -0.01357,0 -0.04592,0.03403 -0.0719,0.07563 -0.04251,0.06808 -0.03776,0.07562 0.04762,0.07562 0.05217,0 0.09485,-0.0071 0.09485,-0.01582 z m 0.453747,-0.604996 c 0,-0.05764 -0.05149,-0.131448 -0.07959,-0.11408 -0.05531,0.03418 -0.03846,0.129894 0.02286,0.129894 0.0312,0 0.05672,-0.0071 0.05672,-0.01582 z m 0.321405,-0.55137 c 0.03764,-0.0416 0.05993,-0.07563 0.04953,-0.07563 -0.0104,0 -0.0497,0.03403 -0.08734,0.07563 -0.03764,0.04159 -0.05993,0.07562 -0.04954,0.07562 0.0104,0 0.04971,-0.03403 0.08735,-0.07562 z m 0.283594,-0.224645 c 0,-0.06551 -0.06655,-0.07763 -0.113784,-0.02072 -0.03889,0.04685 -0.03326,0.0563 0.03353,0.0563 0.04414,0 0.08026,-0.01601 0.08026,-0.03558 z m 0.756245,-0.887727 c 0,-0.0087 -0.0105,-0.04316 -0.02331,-0.07659 -0.01797,-0.04679 -0.03526,-0.05087 -0.07521,-0.0177 -0.05983,0.04965 -0.03565,0.110119 0.04404,0.110119 0.02997,0 0.05449,-0.0071 0.05449,-0.01582 z"
       id="path5665"
       inkscape:connector-curvature="0" />
    <path
       style="fill:#008080;fill-opacity:1;stroke:#008080;stroke-width:0.03787188;stroke-miterlimit:4;stroke-dasharray:none;stroke-opacity:1"
       d="m 95.794619,105.34345 -1.881164,-0.0102 -2.4e-5,-1.72956 c -2.9e-5,-1.959 -0.046,-15.868224 -0.05248,-15.877246 -0.0024,-0.0032 -0.616153,0.647851 -1.36408,1.446842 l -1.359866,1.452711 -0.08188,-0.0856 c -0.134271,-0.140366 -4.817755,-5.997508 -4.838081,-6.050481 -0.01757,-0.04577 1.128157,-1.487625 5.055309,-6.361938 l 1.645097,-2.041866 9.11274,-0.0095 9.11273,-0.0095 2.60924,3.280296 c 3.85447,4.845775 4.09651,5.15239 4.09651,5.189511 0,0.04728 -1.11629,1.406697 -3.89607,4.744659 l -1.02875,1.235324 -0.1114,-0.106645 c -0.0613,-0.05866 -0.65048,-0.671751 -1.30937,-1.362435 l -1.19798,-1.25579 -0.0236,0.348293 c -0.013,0.191561 -0.03,3.343031 -0.0378,7.003264 -0.008,3.660235 -0.0187,7.458961 -0.0243,8.441611 l -0.0102,1.78663 -6.26667,-0.009 c -3.44666,-0.005 -7.113188,-0.0137 -8.147828,-0.0193 z M 94.16173,89.021492 c 0.01257,-0.05006 0.0019,-0.130249 -0.02381,-0.178207 l -0.04667,-0.0872 -0.03412,0.09224 c -0.03816,0.103159 -0.01048,0.264176 0.0454,0.264176 0.02,0 0.04665,-0.04095 0.05921,-0.09101 z m -0.512961,-1.472721 c 0,-0.04096 -0.395042,0.0055 -0.516242,0.06075 -0.10064,0.04585 -0.116538,0.122983 -0.03204,0.155411 0.09549,0.03664 0.06581,0.11168 -0.175112,0.44283 -0.127505,0.175257 -0.248393,0.344173 -0.268642,0.375367 -0.02024,0.03119 0.194673,-0.181327 0.477608,-0.472268 0.282934,-0.290944 0.514424,-0.543883 0.514424,-0.562089 z m 17.544781,0.712804 c -0.0488,-0.05191 -0.1059,-0.09438 -0.12696,-0.09438 -0.0211,0 0.0104,0.05087 0.07,0.113044 0.0596,0.06217 0.1167,0.104645 0.12696,0.09438 0.0103,-0.01027 -0.0212,-0.06113 -0.07,-0.11304 z M 89.464661,80.924531 c -0.02477,-0.06454 -0.0945,-0.0566 -0.117832,0.01341 -0.0083,0.02492 0.01953,0.0449 0.06262,0.0449 0.05438,0 0.07089,-0.01744 0.05521,-0.05832 z m 0.454443,-0.603182 c -0.01193,-0.03108 -0.03719,-0.04691 -0.05615,-0.0352 -0.03965,0.0245 -0.0078,0.0917 0.04344,0.0917 0.01892,0 0.02463,-0.02543 0.0127,-0.0565 z m 0.591241,-0.737557 c 0,-0.0208 -0.01701,-0.03781 -0.03781,-0.03781 -0.0208,0 -0.03781,0.01701 -0.03781,0.03781 0,0.0208 0.01701,0.03781 0.03781,0.03781 0.0208,0 0.03781,-0.01701 0.03781,-0.03781 z m 0.769921,-0.926402 c -0.01196,-0.0312 -0.03696,-0.05672 -0.05553,-0.05672 -0.01857,0 -0.03377,0.02553 -0.03377,0.05672 0,0.03119 0.02498,0.05672 0.05553,0.05672 0.03383,0 0.04703,-0.02217 0.03377,-0.05672 z"
       id="path5667"
       inkscape:connector-curvature="0" />
    <path
       style="fill:#008080;fill-opacity:1;stroke:#008080;stroke-width:0.03787188;stroke-miterlimit:4;stroke-dasharray:none;stroke-opacity:1"
       d="m 93.087418,88.072662 c 0.0085,-0.0208 0.03892,-0.08454 0.06755,-0.141645 0.04606,-0.09189 0.04427,-0.112434 -0.01566,-0.178646 -0.06551,-0.07239 -0.06479,-0.07592 0.02236,-0.108855 0.04954,-0.01871 0.165404,-0.04668 0.257479,-0.06214 l 0.16741,-0.0281 -0.116808,0.146253 c -0.129305,0.161899 -0.406726,0.432639 -0.382334,0.373129 z"
       id="path5669"
       inkscape:connector-curvature="0" />
    <path
       style="fill:#008080;fill-opacity:1;stroke:#008080;stroke-width:0.03787188;stroke-miterlimit:4;stroke-dasharray:none;stroke-opacity:1"
       d=""
       id="path5671"
       inkscape:connector-curvature="0" />
    <path
       style="fill:#008080;fill-opacity:1;stroke:#008080;stroke-width:0.03787188;stroke-miterlimit:4;stroke-dasharray:none;stroke-opacity:1"
       d="m 93.99981,105.34533 c -0.08344,-0.0162 -0.08385,-0.0202 -0.09538,-0.94965 -0.0064,-0.51337 -0.01569,-4.462935 -0.02069,-8.776816 -0.005,-4.31388 -0.0154,-7.849695 -0.02307,-7.857368 -0.01529,-0.01529 -0.02714,-0.0029 -1.327979,1.388817 -0.495683,0.530317 -1.012605,1.081293 -1.148715,1.224393 l -0.247475,0.260178 -0.147137,-0.165647 c -0.289124,-0.325496 -4.789631,-5.96251 -4.789631,-5.999152 0,-0.03358 1.82875,-2.325688 5.444977,-6.824581 l 1.266711,-1.575898 9.129549,0.0083 9.12955,0.0083 2.45131,3.081706 c 3.70283,4.655071 4.22683,5.320638 4.22683,5.368784 0,0.061 -0.3102,0.440169 -4.04593,4.945677 -0.46792,0.564348 -0.86802,1.022543 -0.88909,1.018209 -0.0211,-0.0043 -0.60551,-0.599165 -1.29875,-1.321856 -0.69324,-0.722688 -1.27579,-1.313976 -1.29457,-1.313976 -0.0447,0 -0.0417,-0.399955 -0.068,9.16949 l -0.0229,8.31872 -8.07293,0.004 c -4.440109,0.002 -8.110639,-0.003 -8.15673,-0.0119 z m 0.14052,-16.405216 c 0,-0.07156 -0.01701,-0.130111 -0.03781,-0.130111 -0.0208,0 -0.03781,0.06906 -0.03781,0.153479 0,0.09269 0.01498,0.144225 0.03781,0.130112 0.0208,-0.01286 0.03781,-0.08192 0.03781,-0.15348 z m -0.634182,-1.245576 c 0.06408,-0.08319 0.0093,-0.03515 -0.121727,0.106754 -0.137991,0.149445 -0.24874,0.240999 -0.263208,0.217588 -0.01397,-0.02259 -0.09711,0.06376 -0.188502,0.195744 l -0.163526,0.236159 0.310232,-0.302498 c 0.170627,-0.166372 0.362654,-0.370559 0.426731,-0.453747 z m -0.399354,0.0016 c 0,-0.03028 -0.01445,-0.04612 -0.03213,-0.0352 -0.01767,0.01093 -0.02233,0.03569 -0.01037,0.05505 0.03057,0.04947 0.0425,0.0439 0.0425,-0.01984 z m 0.277288,-0.119148 c 0,-0.0082 -0.02553,-0.01487 -0.05672,-0.01487 -0.03119,0 -0.05672,0.01648 -0.05672,0.03663 0,0.02013 0.02553,0.02683 0.05672,0.01487 0.0312,-0.01199 0.05672,-0.02845 0.05672,-0.03663 z m -3.932481,-6.632019 c 0,-0.0208 -0.01701,-0.03781 -0.03781,-0.03781 -0.0208,0 -0.03781,0.01701 -0.03781,0.03781 0,0.0208 0.01701,0.03781 0.03781,0.03781 0.0208,0 0.03781,-0.01701 0.03781,-0.03781 z m 1.814992,-2.268741 c 0,-0.0208 -0.01802,-0.03781 -0.04005,-0.03781 -0.02201,0 -0.02953,0.01701 -0.01667,0.03781 0.01286,0.0208 0.03087,0.03781 0.04004,0.03781 0.0092,0 0.01667,-0.01701 0.01667,-0.03781 z"
       id="path5673"
       inkscape:connector-curvature="0" />
    <path
       style="fill:#008080;fill-opacity:1;stroke:#008080;stroke-width:0.03787188;stroke-miterlimit:4;stroke-dasharray:none;stroke-opacity:1"
       d="m 93.912521,105.27481 c -0.02349,-0.0618 -0.03859,-3.01052 -0.0416,-8.120195 -0.0026,-4.412766 -0.01535,-8.325253 -0.02836,-8.69442 l -0.02365,-0.671214 -1.342337,1.435629 -1.34234,1.435629 -0.132342,-0.155577 c -0.473832,-0.557014 -4.801465,-5.99557 -4.80178,-6.034413 -2.65e-4,-0.04022 2.787989,-3.539416 5.935086,-7.448243 l 0.768704,-0.954762 9.135438,1.45e-4 9.13543,1.43e-4 0.15392,0.198372 c 0.0847,0.109103 1.37812,1.738278 2.87437,3.620386 3.35797,4.223917 3.64559,4.590978 3.64559,4.652444 0,0.06087 -0.49173,0.669292 -2.47413,3.061274 -2.03679,2.457595 -2.40393,2.891213 -2.4553,2.899881 -0.0236,0.004 -0.61291,-0.584237 -1.3096,-1.307156 -0.91624,-0.950727 -1.27303,-1.297977 -1.28952,-1.255048 -0.0292,0.07586 -0.0717,7.975555 -0.0717,13.322025 l -3e-5,4.1121 h -8.14949 -8.149498 z M 94.14033,88.940114 c 0,-0.05076 -0.01701,-0.0923 -0.03781,-0.0923 -0.0208,0 -0.03781,0.05205 -0.03781,0.115667 0,0.06749 0.01574,0.105934 0.03781,0.0923 0.0208,-0.01286 0.03781,-0.0649 0.03781,-0.115667 z m -1.080225,-0.770236 c 0.07414,-0.07739 0.08767,-0.108048 0.0449,-0.101769 -0.05954,0.0087 -0.171043,0.127119 -0.173461,0.18416 -0.0019,0.04623 0.01696,0.0341 0.128566,-0.08239 z"
       id="path5675"
       inkscape:connector-curvature="0" />
    <path
       style="fill:#008080;fill-opacity:1;stroke:#008080;stroke-width:0.03787188;stroke-miterlimit:4;stroke-dasharray:none;stroke-opacity:1"
       d="m 94.064704,88.961252 c 0,-0.0208 0.01802,-0.03781 0.04004,-0.03781 0.02201,0 0.02953,0.01701 0.01667,0.03781 -0.01286,0.0208 -0.03087,0.03781 -0.04004,0.03781 -0.0092,0 -0.01667,-0.01701 -0.01667,-0.03781 z"
       id="path5677"
       inkscape:connector-curvature="0" />
    <path
       style="fill:#008080;fill-opacity:1;stroke:#008080;stroke-width:0.03787188;stroke-miterlimit:4;stroke-dasharray:none;stroke-opacity:1"
       d="m 93.896522,105.32454 c -0.008,-0.026 -0.0241,-3.94891 -0.03578,-8.717594 -0.01167,-4.768684 -0.03436,-8.69188 -0.05043,-8.71822 -0.01982,-0.03249 -0.453069,0.405662 -1.347454,1.362687 -0.72504,0.775816 -1.334598,1.400471 -1.354576,1.388125 -0.03327,-0.02056 -4.057486,-5.040746 -4.658665,-5.811654 -0.224554,-0.287954 -0.254658,-0.344467 -0.221572,-0.415936 0.03351,-0.07239 4.643101,-5.848413 6.123911,-7.673536 l 0.544552,-0.671168 h 9.142772 9.14277 l 2.96464,3.732106 c 3.50757,4.415597 3.70135,4.663678 3.7017,4.73905 2.7e-4,0.08303 -1.44067,1.85261 -3.79799,4.663805 -0.52095,0.621247 -0.97838,1.169998 -1.01651,1.219446 -0.0381,0.04945 -0.0894,0.08991 -0.11396,0.08991 -0.0245,0 -0.54636,-0.520007 -1.15958,-1.155573 -0.61321,-0.635564 -1.18531,-1.213644 -1.27133,-1.284621 l -0.1564,-0.129053 -0.0223,1.105016 c -0.0244,1.209995 -0.0619,9.500518 -0.0619,13.68706 l -3e-5,2.63742 h -8.16865 c -6.501946,0 -8.171623,-0.01 -8.183212,-0.0473 z M 93.048596,88.138832 c 0.04703,-0.05997 0.0457,-0.06131 -0.01429,-0.01426 -0.06299,0.04939 -0.08301,0.08045 -0.0519,0.08045 0.0079,0 0.03763,-0.02978 0.06617,-0.06617 z"
       id="path5679"
       inkscape:connector-curvature="0" />
    <path
       style="fill:#008080;fill-opacity:1;stroke:#008080;stroke-width:0.03787188;stroke-miterlimit:4;stroke-dasharray:none;stroke-opacity:1"
       d=""
       id="path5681"
       inkscape:connector-curvature="0" />
    <path
       style="fill:#008080;fill-opacity:1;stroke:#008080;stroke-width:0.03787188;stroke-miterlimit:4;stroke-dasharray:none;stroke-opacity:1"
       d="M 67.028884,90.776095 V 76.066947 l 4.678809,0.0096 4.678807,0.0096 6.626048,8.091839 c 3.644326,4.450512 6.626513,8.101 6.627079,8.112194 5.3e-4,0.01119 -0.792043,0.972571 -1.761357,2.136397 -0.969317,1.163825 -1.797458,2.167091 -1.840315,2.229482 -0.04286,0.06239 -0.12251,0.158755 -0.177006,0.214146 -0.0545,0.05539 -0.311097,0.357275 -0.570222,0.670851 l -0.471138,0.570137 -0.06941,-0.08476 c -0.03817,-0.04662 -0.244903,-0.288946 -0.459399,-0.538507 -0.214497,-0.249563 -2.120312,-2.487107 -4.235143,-4.972322 -2.11483,-2.485218 -3.894666,-4.569296 -3.95519,-4.631285 l -0.110042,-0.11271 7.93e-4,0.963488 c 0.0024,2.367796 -0.08213,16.158123 -0.100584,16.438193 l -0.02056,0.31195 h -4.420648 -4.42065 z m 8.61505,14.245945 -0.0062,-0.23633 -0.0222,0.20481 c -0.01955,0.1804 -0.02838,0.19729 -0.07409,0.14179 -0.06488,-0.0788 -0.11826,-0.0811 -0.11826,-0.005 0,0.0319 -0.03829,0.0733 -0.08508,0.0921 -0.06742,0.0271 -0.04388,0.0347 0.113438,0.0366 l 0.198514,0.002 z m 9.307999,-7.445436 c 0,-0.01757 -0.07103,-0.03195 -0.157842,-0.03195 h -0.15784 l 0.08875,0.09447 c 0.08317,0.08854 0.0931,0.09055 0.15784,0.03195 0.038,-0.03439 0.06909,-0.0769 0.06909,-0.09448 z m 0.714269,-0.839901 c 0.03264,-0.03933 0.02922,-0.06306 -0.01429,-0.09916 -0.04856,-0.04031 -0.05719,-0.03251 -0.05719,0.0517 0,0.112879 0.01106,0.12023 0.07146,0.04746 z m -4.193005,-2.973285 c 0,-0.0208 -0.01802,-0.03781 -0.04004,-0.03781 -0.02201,0 -0.02953,0.01701 -0.01667,0.03781 0.01286,0.0208 0.03087,0.03781 0.04005,0.03781 0.0092,0 0.01667,-0.01701 0.01667,-0.03781 z m -5.71913,-4.96013 c -0.0058,-0.672203 -0.01053,-0.133191 -0.01053,1.197803 -5e-6,1.330994 0.0047,1.880978 0.01053,1.222187 0.0058,-0.658794 0.0058,-1.747787 8e-6,-2.41999 z m 12.109415,1.675087 c 0,-0.04958 -0.09775,-0.121158 -0.12637,-0.09253 -0.05177,0.05177 -0.02191,0.125714 0.05074,0.125714 0.0416,0 0.07563,-0.01492 0.07563,-0.03318 z M 77.578528,89.212892 c 0,-0.0072 -0.03829,-0.04546 -0.08508,-0.08508 l -0.08508,-0.07203 0.07203,0.08508 c 0.06769,0.07995 0.09812,0.102293 0.09812,0.07203 z M 77.04163,88.556768 c -0.327478,-0.403654 -0.955622,-1.099061 -0.77883,-0.86223 0.116699,0.156332 1.133043,1.342337 1.15031,1.342337 0.0099,0 -0.157252,-0.216048 -0.37148,-0.480107 z m 9.435999,0.262458 c 0.0097,-0.01572 -0.02652,-0.07953 -0.08053,-0.141795 -0.05635,-0.06496 -0.0871,-0.08369 -0.07215,-0.04394 0.01431,0.03809 0.02603,0.101904 0.02603,0.141796 0,0.07029 0.09087,0.101822 0.12664,0.04394 z m -2.114436,-2.576179 c 0.0114,-0.01844 -0.0031,-0.0533 -0.03221,-0.07746 -0.05894,-0.04892 -0.119295,0.0073 -0.07858,0.07318 0.02894,0.04681 0.08321,0.04891 0.110789,0.0043 z m -0.83122,-1.06626 c -0.01217,-0.01971 -0.03825,-0.02585 -0.05795,-0.01368 -0.01968,0.01217 -0.02585,0.03825 -0.01368,0.05795 0.01217,0.01969 0.03825,0.02585 0.05795,0.01368 0.01969,-0.01217 0.02585,-0.03825 0.01368,-0.05795 z M 81.41062,82.588241 c -0.0123,-0.03209 -0.0305,-0.05024 -0.04041,-0.04033 -0.0099,0.0099 -0.0068,0.03617 0.0069,0.05835 0.03729,0.06033 0.05908,0.04861 0.03351,-0.01802 z m -0.249825,-0.30807 c -0.03516,-0.03515 -0.07454,-0.0533 -0.08751,-0.04033 -0.03721,0.03721 0.01992,0.104249 0.08884,0.104249 0.05772,0 0.05762,-0.005 -0.0013,-0.06392 z m -2.112134,-2.582942 c -0.136999,-0.170476 -0.17004,-0.191227 -0.105362,-0.06617 0.05834,0.1128 0.151294,0.217421 0.193175,0.217421 0.01855,0 -0.02096,-0.06806 -0.08781,-0.151249 z m -0.487773,-0.587004 c -0.0263,-0.0317 -0.05562,-0.04985 -0.06514,-0.04033 -0.02622,0.02622 0.02706,0.09796 0.07276,0.09796 0.02508,0 0.0222,-0.0217 -0.0076,-0.05763 z m -0.226115,-0.276821 c 0,-0.01757 -0.03403,-0.06275 -0.07562,-0.100391 -0.07382,-0.06681 -0.07563,-0.06604 -0.07563,0.03195 0,0.07518 0.019,0.100391 0.07563,0.100391 0.04159,0 0.07562,-0.01437 0.07562,-0.03195 z m -1.361244,-1.669383 c 0,-0.01582 -0.02434,-0.04897 -0.05408,-0.07366 -0.04312,-0.03578 -0.06201,-0.03006 -0.0932,0.02821 -0.02151,0.0402 -0.03023,0.08199 -0.01934,0.09286 0.02744,0.02744 0.166635,-0.01217 0.166635,-0.04742 z m -0.675788,-0.82306 c -0.01961,-0.03663 -0.07125,-0.09882 -0.114769,-0.138203 -0.07568,-0.06849 -0.07913,-0.06861 -0.07913,-0.0026 0,0.0839 0.10559,0.207354 0.177345,0.207354 0.03811,0 0.04258,-0.01797 0.01656,-0.06659 z"
       id="path5683"
       inkscape:connector-curvature="0" />
    <path
       style="fill:#008080;fill-opacity:1;stroke:#008080;stroke-width:0.03787188;stroke-miterlimit:4;stroke-dasharray:none;stroke-opacity:1"
       d="M 67.028884,90.776243 V 76.067244 h 4.679923 4.679921 l 6.627307,8.098893 c 3.79716,4.640315 6.619071,8.120351 6.608022,8.149145 -0.01061,0.02764 -0.798447,0.9901 -1.750756,2.138799 -0.952307,1.148699 -1.782249,2.15088 -1.844313,2.22707 -0.06206,0.07619 -0.358695,0.431292 -0.659182,0.789119 l -0.546341,0.650595 -0.09647,-0.110392 c -0.46169,-0.528315 -1.112444,-1.290288 -3.788611,-4.436118 -4.088128,-4.805579 -4.875805,-5.726605 -4.908183,-5.739085 -0.015,-0.0058 -0.03866,2.521024 -0.05257,5.61513 -0.0325,7.22968 -0.06531,11.92774 -0.08374,11.98758 -0.01153,0.0375 -0.932566,0.0473 -4.439782,0.0473 h -4.42523 z m 8.620635,14.397047 c -5.29e-4,-0.0621 -0.0093,-0.0712 -0.03309,-0.0338 -0.02265,0.0358 -0.04034,0.0386 -0.05837,0.009 -0.03989,-0.0645 -0.111718,-0.0497 -0.163875,0.0338 -0.04428,0.0709 -0.03776,0.0756 0.104341,0.0756 0.132146,0 0.151495,-0.0109 0.150992,-0.0851 z m 9.226788,-7.493202 c 0,-0.0087 0.01032,-0.04273 0.02294,-0.07563 0.01789,-0.04663 -0.0029,-0.05981 -0.09453,-0.05981 -0.124621,0 -0.14624,0.03174 -0.07211,0.105873 0.04291,0.04291 0.143687,0.06364 0.143687,0.02956 z m 0.79406,-1.007351 c 0,-0.01958 -0.01701,-0.03558 -0.03781,-0.03558 -0.0208,0 -0.03781,0.02653 -0.03781,0.05895 0,0.03242 0.01701,0.04843 0.03781,0.03558 0.0208,-0.01286 0.03781,-0.03938 0.03781,-0.05895 z m 2.155304,-6.217899 c 0,-0.03119 -0.01601,-0.05672 -0.03558,-0.05672 -0.04768,0 -0.08183,0.05905 -0.05162,0.08926 0.04259,0.04258 0.0872,0.02593 0.0872,-0.03254 z M 86.420379,88.72273 c -0.02863,-0.05349 -0.04995,-0.06559 -0.06039,-0.03427 -0.02368,0.07105 0.02214,0.167944 0.06645,0.140552 0.02516,-0.01556 0.0231,-0.05178 -0.0061,-0.106281 z m -2.073445,-2.521781 c 0,-0.0208 -0.01701,-0.03781 -0.03781,-0.03781 -0.0208,0 -0.03781,0.01701 -0.03781,0.03781 0,0.0208 0.01701,0.03782 0.03781,0.03782 0.0208,0 0.03781,-0.01701 0.03781,-0.03782 z M 79.037086,79.70578 c -0.06533,-0.0624 -0.06634,-0.06138 -0.02305,0.02305 0.02492,0.04857 0.05566,0.07795 0.06834,0.06527 0.01267,-0.01267 -0.0077,-0.05242 -0.04529,-0.08832 z m -0.740704,-0.868783 c -2.65e-4,-0.01561 -0.0164,-0.05339 -0.03576,-0.08398 -0.04357,-0.06889 -0.09468,-0.0258 -0.06405,0.05399 0.02262,0.05893 0.10088,0.08245 0.09981,0.02999 z M 76.92847,77.160965 c -0.0075,-0.02236 -0.02972,-0.04065 -0.04947,-0.04065 -0.01976,0 -0.04202,0.01828 -0.04947,0.04065 -0.0075,0.02236 0.01482,0.04065 0.04947,0.04065 0.03466,0 0.05692,-0.01828 0.04947,-0.04065 z m -0.693608,-0.882473 c -0.06201,-0.09463 -0.131016,-0.129992 -0.131016,-0.06713 0,0.04403 0.155337,0.204705 0.176977,0.183065 0.01,-0.01 -0.01072,-0.06214 -0.04596,-0.115938 z"
       id="path5685"
       inkscape:connector-curvature="0" />
    <path
       style="fill:#008080;fill-opacity:1;stroke:#008080;stroke-width:0.03787188;stroke-miterlimit:4;stroke-dasharray:none;stroke-opacity:1"
       d="M 67.028884,90.776243 V 76.067244 h 4.686551 4.686554 l 5.666483,6.929112 c 4.748655,5.806765 7.360939,9.007752 7.544668,9.244925 0.05045,0.06512 0.06762,0.04258 -1.188514,1.559949 -0.611182,0.738285 -1.406093,1.699665 -1.766472,2.136396 -0.360378,0.436732 -0.712906,0.862121 -0.783396,0.945309 -0.07049,0.08319 -0.328235,0.392798 -0.57276,0.688025 -0.244528,0.295228 -0.456128,0.537697 -0.470225,0.538827 -0.03691,0.003 -0.495044,-0.529656 -4.405389,-5.121521 -1.930406,-2.26685 -3.70545,-4.349126 -3.944544,-4.62728 l -0.434713,-0.505732 -0.02349,1.413229 c -0.01294,0.777278 -0.03426,3.710329 -0.0474,6.517894 -0.01315,2.807566 -0.03495,6.138363 -0.04845,7.401763 l -0.02455,2.2971 h -4.437168 -4.437171 z m 8.612007,14.415927 c 0.0095,-0.0289 -0.0062,-0.0389 -0.04053,-0.0258 -0.03083,0.0118 -0.0678,0.002 -0.08215,-0.0207 -0.02898,-0.0469 -0.1328,0.0172 -0.1328,0.0819 0,0.0527 0.237361,0.0198 0.255479,-0.0354 z m 9.218547,-7.606412 c -0.02931,-0.04743 -0.13438,-0.05592 -0.13438,-0.01085 0,0.01664 0.02043,0.05067 0.04537,0.07562 0.05286,0.05286 0.127939,-0.0019 0.08901,-0.06477 z m 2.966233,-7.128687 c 0,-0.0092 -0.01701,-0.02719 -0.03781,-0.04004 -0.0208,-0.01286 -0.03781,-0.0053 -0.03781,0.01667 0,0.02201 0.01701,0.04005 0.03781,0.04005 0.0208,0 0.03781,-0.0075 0.03781,-0.01667 z m -1.429938,-1.730888 c -0.02713,-0.02713 -0.04474,-0.02936 -0.04474,-0.0057 0,0.05047 0.04472,0.09519 0.06995,0.06995 0.01074,-0.01074 -5.29e-4,-0.03967 -0.02522,-0.06428 z M 84.346934,86.22209 c 0,-0.0092 -0.01701,-0.02719 -0.03781,-0.04004 -0.0208,-0.01286 -0.03781,-0.0053 -0.03781,0.01667 0,0.02201 0.01701,0.04004 0.03781,0.04004 0.0208,0 0.03781,-0.0075 0.03781,-0.01667 z M 78.27961,78.792248 c -0.01371,-0.02217 -0.04302,-0.04033 -0.06514,-0.04033 -0.02508,0 -0.0222,0.0217 0.0076,0.05763 0.05186,0.06249 0.09821,0.04854 0.05752,-0.0173 z m -1.381704,-1.628447 c 0,-0.0208 -0.0075,-0.03781 -0.01667,-0.03781 -0.0092,0 -0.02719,0.01701 -0.04004,0.03781 -0.01286,0.0208 -0.0053,0.03781 0.01667,0.03781 0.02201,0 0.04005,-0.01701 0.04005,-0.03781 z m -0.680623,-0.888589 c -0.02672,-0.0322 -0.0571,-0.05004 -0.06749,-0.03964 -0.0104,0.0104 0.003,0.04525 0.02968,0.07745 0.02673,0.0322 0.0571,0.05004 0.0675,0.03964 0.0104,-0.0104 -0.003,-0.04525 -0.02968,-0.07745 z"
       id="path5687"
       inkscape:connector-curvature="0" />
    <path
       style="fill:#008080;fill-opacity:1;stroke:#008080;stroke-width:0.03787188;stroke-miterlimit:4;stroke-dasharray:none;stroke-opacity:1"
       d=""
       id="path5689"
       inkscape:connector-curvature="0" />
    <path
       style="fill:#008080;fill-opacity:1;stroke:#008080;stroke-width:0.03787188;stroke-miterlimit:4;stroke-dasharray:none;stroke-opacity:1"
       d="m 68.739894,105.49431 -1.71101,-0.01 V 90.775857 76.067244 l 4.698182,0.0016 4.698185,0.0016 2.892642,3.541506 c 1.590956,1.947828 3.929679,4.809932 5.197166,6.360229 3.858807,4.719817 5.125603,6.282422 5.125603,6.322491 0,0.04503 -0.335328,0.458628 -2.186958,2.697453 -2.042242,2.469296 -2.59183,3.119753 -2.633943,3.117374 -0.0209,-0.0011 -0.17893,-0.167082 -0.351198,-0.36867 -0.172267,-0.201589 -2.129054,-2.496585 -4.348419,-5.099992 l -4.035205,-4.733468 -0.02569,0.170964 c -0.01413,0.09403 -0.04367,3.262037 -0.06564,7.040017 -0.02196,3.777983 -0.0507,7.656022 -0.06385,8.617872 l -0.02392,1.74882 -1.120442,-1.9e-4 c -0.616243,-1.1e-4 -1.843603,0.004 -2.727467,0.009 -0.883862,0.005 -2.376977,0.005 -3.318031,-1.9e-4 z m 6.834579,-0.31157 c -0.07398,-0.0478 -0.151249,-0.0478 -0.151249,0 0,0.0208 0.04679,0.0376 0.103984,0.0372 0.08103,-5.3e-4 0.09146,-0.009 0.04726,-0.0372 z m 9.301834,-7.562464 c 0,-0.0208 -0.03504,-0.03781 -0.07786,-0.03781 -0.04282,0 -0.06734,0.01701 -0.05449,0.03781 0.01286,0.0208 0.04789,0.03781 0.07786,0.03781 0.02997,0 0.05448,-0.01701 0.05448,-0.03781 z"
       id="path5691"
       inkscape:connector-curvature="0" />
    <path
       style="fill:#008080;fill-opacity:1;stroke:#008080;stroke-width:0.03787188;stroke-miterlimit:4;stroke-dasharray:none;stroke-opacity:1"
       d="M 67.028884,90.795307 V 76.067244 h 4.701712 4.701712 l 3.005743,3.67725 c 9.232614,11.29524 10.202611,12.488236 10.202611,12.548161 0,0.05691 -0.481618,0.653402 -2.378218,2.945445 -1.408218,1.701834 -2.422784,2.911549 -2.441863,2.911549 -0.01574,0 -0.737074,-0.842965 -4.804151,-5.614181 l -3.931491,-4.612155 -0.02429,0.830921 c -0.01336,0.457007 -0.045,4.0894 -0.07032,8.071982 -0.02532,3.982584 -0.05692,7.564354 -0.07024,7.959494 l -0.02421,0.71844 -4.433496,0.01 -4.433498,0.01 z m 8.545589,14.410383 c 0,-0.008 -0.02553,-0.0247 -0.05672,-0.0366 -0.03119,-0.012 -0.05672,-0.005 -0.05672,0.0149 0,0.0201 0.02553,0.0366 0.05672,0.0366 0.03119,0 0.05672,-0.007 0.05672,-0.0149 z m 9.264023,-7.585414 c 0,-0.0208 -0.01802,-0.03781 -0.04005,-0.03781 -0.02201,0 -0.02953,0.01701 -0.01667,0.03781 0.01286,0.0208 0.03087,0.03781 0.04004,0.03781 0.0092,0 0.01667,-0.01701 0.01667,-0.03781 z"
       id="path5693"
       inkscape:connector-curvature="0" />
    <path
       style="fill:#008080;fill-opacity:1;stroke:#008080;stroke-width:0.03787188;stroke-miterlimit:4;stroke-dasharray:none;stroke-opacity:1"
       d=""
       id="path5695"
       inkscape:connector-curvature="0" />
    <path
       style="fill:#008080;fill-opacity:1;stroke:#008080;stroke-width:0.03787188;stroke-miterlimit:4;stroke-dasharray:none;stroke-opacity:1"
       d=""
       id="path5697"
       inkscape:connector-curvature="0" />
    <path
       style="fill:#008080;fill-opacity:1;stroke:#008080;stroke-width:0.03787188;stroke-miterlimit:4;stroke-dasharray:none;stroke-opacity:1"
       d=""
       id="path5699"
       inkscape:connector-curvature="0" />
    <path
       style="fill:#008080;fill-opacity:1;stroke:#008080;stroke-width:0.03787188;stroke-miterlimit:4;stroke-dasharray:none;stroke-opacity:1"
       d="m 66.86399,74.800609 c -0.03376,-0.08798 -0.03148,-0.09461 0.03255,-0.09461 0.06365,0 0.07084,0.03262 0.02357,0.107153 -0.02551,0.04023 -0.03686,0.03769 -0.05614,-0.01254 z"
       id="path5701"
       inkscape:connector-curvature="0" />
    <path
       style="fill:#008080;fill-opacity:1;stroke:#008080;stroke-width:0.03787188;stroke-miterlimit:4;stroke-dasharray:none;stroke-opacity:1"
       d=""
       id="path5703"
       inkscape:connector-curvature="0" />
    <path
       style="fill:#008080;fill-opacity:1;stroke:#008080;stroke-width:0.03787188;stroke-miterlimit:4;stroke-dasharray:none;stroke-opacity:1"
       d=""
       id="path5705"
       inkscape:connector-curvature="0" />
    <path
       style="fill:#008080;fill-opacity:1;stroke:#008080;stroke-width:0.01893594;stroke-miterlimit:4;stroke-dasharray:none;stroke-opacity:1"
       d="m 66.902188,74.899921 c -0.006,-0.01572 0.0013,-0.03874 0.01627,-0.05117 0.02146,-0.01781 0.02717,-0.01712 0.02694,0.0033 -1.59e-4,0.01426 -0.0075,0.0373 -0.01627,0.05116 -0.01299,0.02048 -0.01804,0.01987 -0.02694,-0.0033 z"
       id="path5707"
       inkscape:connector-curvature="0" />
    <path
       style="fill:#008080;fill-opacity:1;stroke:#008080;stroke-width:0.01893594;stroke-miterlimit:4;stroke-dasharray:none;stroke-opacity:1"
       d=""
       id="path5709"
       inkscape:connector-curvature="0" />
    <path
       style="fill:#008080;fill-opacity:1;stroke:#008080;stroke-width:0.01893594;stroke-miterlimit:4;stroke-dasharray:none;stroke-opacity:1"
       d=""
       id="path5711"
       inkscape:connector-curvature="0" />
    <path
       style="fill:#008080;fill-opacity:1;stroke:#008080;stroke-width:0.01338973;stroke-miterlimit:4;stroke-dasharray:none;stroke-opacity:1"
       d=""
       id="path5713"
       inkscape:connector-curvature="0" />
    <path
       style="fill:#008080;fill-opacity:1;stroke:#008080;stroke-width:0.01338973;stroke-miterlimit:4;stroke-dasharray:none;stroke-opacity:1"
       d=""
       id="path5715"
       inkscape:connector-curvature="0" />
    <rect
       style="fill:#008080;fill-opacity:1;stroke:#008080;stroke-width:0.26499999;stroke-miterlimit:4;stroke-dasharray:none;stroke-opacity:1"
       id="rect5719"
       width="0.081861258"
       height="2.5070012"
       x="66.842598"
       y="74.558594" />
    <path
       style="fill:none;stroke:#008080;stroke-width:0.26458332px;stroke-linecap:butt;stroke-linejoin:miter;stroke-opacity:1"
       d="m 129.14853,74.524302 c 8.15118,-0.04134 8.15118,-0.04134 8.15118,-0.04134 v 0.945309 0"
       id="path5729"
       inkscape:connector-curvature="0" />
    <path
       style="fill:none;stroke:#008080;stroke-width:0.26458332px;stroke-linecap:butt;stroke-linejoin:miter;stroke-opacity:1"
       d="m 137.29971,74.482961 c 0.0756,8.659026 0.0756,8.659026 0.0756,8.659026"
       id="path5731"
       inkscape:connector-curvature="0" />
    <path
       style="fill:none;stroke:#008080;stroke-width:0.26458332px;stroke-linecap:butt;stroke-linejoin:miter;stroke-opacity:1"
       d="m 137.37531,83.141987 0.0708,22.218513 v 0"
       id="path5733"
       inkscape:connector-curvature="0" />
    <path
       style="fill:none;stroke:#008080;stroke-width:0.26458332px;stroke-linecap:butt;stroke-linejoin:miter;stroke-opacity:1"
       d="m 129.14853,74.524302 -14.57404,17.654836 4.61311,5.823098 9.11277,-10.360581"
       id="path5735"
       inkscape:connector-curvature="0" />
    <path
       style="fill:#008080;fill-opacity:1;stroke:#008080;stroke-width:0.03787188;stroke-miterlimit:4;stroke-dasharray:none;stroke-opacity:1"
       d=""
       id="path5737"
       inkscape:connector-curvature="0" />
    <path
       style="fill:#008080;fill-opacity:1;stroke:#008080;stroke-width:0.03787188;stroke-miterlimit:4;stroke-dasharray:none;stroke-opacity:1"
       d="m 129.75955,105.30594 c -0.82094,-0.0315 -0.98031,-0.0557 -1.06463,-0.16187 -0.052,-0.0655 -0.0724,-0.0707 -0.12066,-0.0306 -0.0499,0.0414 -0.0608,0.0304 -0.0772,-0.0775 -0.0597,-0.39206 -0.0741,-1.78597 -0.0949,-9.171502 l -0.0228,-8.138337 -4.02702,4.577535 c -2.21485,2.517643 -4.08306,4.648496 -4.15157,4.735227 -0.0685,0.08673 -0.26617,0.310832 -0.43925,0.498004 -0.17309,0.187171 -0.37576,0.408373 -0.45038,0.491558 -0.13191,0.147053 -0.13721,0.149151 -0.19082,0.07563 -0.0303,-0.04159 -1.09432,-1.385821 -2.36442,-2.987175 -1.2701,-1.601351 -2.30952,-2.922828 -2.30983,-2.936613 -2.6e-4,-0.01378 3.27737,-3.995425 7.28373,-8.848087 5.08177,-6.155256 7.30551,-8.822116 7.35449,-8.82002 0.0386,0.0016 0.0702,-0.01683 0.0702,-0.04108 0,-0.05141 2.80357,-0.09427 6.16663,-0.09427 h 2.07045 l 0.0198,0.103984 c 0.0109,0.05719 0.0313,2.015995 0.0453,4.352901 0.0214,3.572515 0.0172,4.254132 -0.0263,4.281667 -0.0321,0.02035 -0.0351,0.03297 -0.008,0.03333 0.0283,2.64e-4 0.0514,0.123804 0.0654,0.350343 0.0119,0.19237 0.0323,5.186436 0.0453,11.097921 l 0.0237,10.748154 -3.54887,-0.006 c -1.95188,-0.003 -3.86366,-0.0183 -4.2484,-0.033 z m -10.40078,-7.671176 0.0697,-0.09789 h -0.22272 c -0.12249,0 -0.22271,0.0052 -0.22271,0.01148 0,0.0063 0.0461,0.06925 0.10244,0.139861 0.11125,0.139425 0.13995,0.13381 0.27329,-0.05345 z m -0.55112,-0.362574 c -0.012,-0.03119 -0.039,-0.05672 -0.0602,-0.05672 -0.0221,0 -0.0184,0.02403 0.009,0.05672 0.0259,0.03119 0.053,0.05672 0.0602,0.05672 0.007,0 0.003,-0.02553 -0.009,-0.05672 z m -1.36799,-1.728655 c -0.0271,-0.02713 -0.0447,-0.02936 -0.0447,-0.0057 0,0.05047 0.0447,0.09519 0.07,0.06995 0.0107,-0.01074 -5.3e-4,-0.03967 -0.0252,-0.06428 z m 5.2868,-1.750081 c 0.0393,-0.04734 0.034,-0.05672 -0.032,-0.05672 -0.0548,0 -0.0724,0.01744 -0.0573,0.05672 0.012,0.0312 0.0264,0.05672 0.032,0.05672 0.006,0 0.0314,-0.02553 0.0573,-0.05672 z m 3.39572,-3.847404 c 1.129,-1.284203 2.06157,-2.334911 2.07238,-2.334911 0.0108,0 0.0526,0.01762 0.0928,0.03914 0.0897,0.04798 0.0945,0.0094 0.0105,-0.08343 -0.1357,-0.149952 -0.34023,-0.04878 -0.68048,0.336627 -0.12428,0.140766 -0.53894,0.647298 -0.92148,1.125625 -0.89064,1.113642 -2.13466,2.635816 -2.47224,3.024986 -0.14431,0.166373 -0.28925,0.337402 -0.32209,0.380061 -0.17622,0.228944 0.3669,-0.379614 2.22056,-2.488099 z m -10.10993,0.879136 c 0.0706,0 0.0816,-0.02082 0.08,-0.15113 -0.001,-0.08312 -0.004,-0.151183 -0.006,-0.151249 -0.002,-7.4e-5 -0.0872,0.106227 -0.18901,0.236207 -0.1409,0.179874 -0.15908,0.216006 -0.0761,0.151251 0.06,-0.04679 0.14585,-0.08508 0.19085,-0.08508 z m 1.63997,-1.983444 c 0.0837,-0.0013 0.10317,-0.024 0.12926,-0.149577 0.0169,-0.08133 0.0658,-0.204692 0.10875,-0.27414 0.0429,-0.06945 0.0709,-0.126264 0.0621,-0.126264 -0.009,0 -0.12927,0.135371 -0.26777,0.300823 -0.2441,0.291616 -0.3157,0.404265 -0.19133,0.301054 0.0333,-0.0276 0.10481,-0.05096 0.15901,-0.0519 z m 2.19498,-2.613824 c 0.007,-0.0061 -0.001,-0.05141 -0.0189,-0.100663 l -0.0323,-0.08955 -0.10749,0.124759 -0.1075,0.124759 0.1264,-0.0241 c 0.0695,-0.01326 0.13243,-0.0291 0.1398,-0.03521 z m 0.45367,-0.69674 c 0.0132,-0.09328 0.0126,-0.09346 -0.0662,-0.02212 -0.0967,0.08754 -0.10275,0.145812 -0.0133,0.128764 0.037,-0.007 0.0721,-0.05414 0.0795,-0.10665 z m 0.31809,-0.324821 c 0.0124,-0.01244 0.0133,-0.04689 0.002,-0.07659 -0.0159,-0.04142 -0.0329,-0.04388 -0.073,-0.01058 -0.0288,0.02387 -0.0523,0.05834 -0.0523,0.07659 0,0.03748 0.0889,0.0451 0.12344,0.01058 z m 2.04768,-2.533775 c 0.0329,-0.01262 0.0598,-0.05617 0.0598,-0.09676 0,-0.08459 -0.0568,-0.06167 -0.11457,0.0462 -0.0426,0.07962 -0.0362,0.08549 0.0547,0.05057 z m 2.49605,-3.031323 c 0.0327,-0.06849 0.0594,-0.13607 0.0594,-0.150175 0,-0.0302 -0.21093,0.208021 -0.26425,0.298434 -0.0323,0.05476 -0.0257,0.05708 0.0544,0.01926 0.0501,-0.02365 0.11782,-0.09903 0.15048,-0.167518 z m 0.42994,-0.507648 c 0.025,-0.02495 0.0454,-0.07013 0.0454,-0.100391 0,-0.04367 -0.0156,-0.0409 -0.0756,0.01341 -0.0777,0.0703 -0.099,0.132344 -0.0454,0.132344 0.0166,0 0.0507,-0.02043 0.0756,-0.04538 z m 0.34164,-0.346218 c 0.0247,-0.129894 -0.0522,-0.141774 -0.14093,-0.02177 l -0.0862,0.11652 0.10688,-0.01228 c 0.0681,-0.0078 0.11172,-0.03775 0.1202,-0.08246 z m 1.89598,-2.349248 c 0.16454,-0.103871 0.23866,-0.212334 0.22067,-0.322887 -0.009,-0.05657 -0.0563,-0.01847 -0.21263,0.172106 -0.11044,0.134617 -0.19092,0.244758 -0.17886,0.244758 0.0121,0 0.0889,-0.04229 0.17082,-0.09398 z m 9.34052,-1.683203 c 0,-0.150021 -0.001,-0.151228 -0.1418,-0.148688 -0.12695,0.0024 -0.13317,0.0067 -0.0594,0.04239 0.0453,0.02191 0.10268,0.08882 0.12748,0.148691 0.0602,0.145237 0.0737,0.137438 0.0737,-0.04239 z"
       id="path5739"
       inkscape:connector-curvature="0" />
    <path
       style="fill:#008080;fill-opacity:1;stroke:#008080;stroke-width:0.03787188;stroke-miterlimit:4;stroke-dasharray:none;stroke-opacity:1"
       d="m 129.57049,105.30714 c -0.60818,-0.0286 -0.78188,-0.0565 -0.87773,-0.14097 -0.0356,-0.0314 -0.0895,-0.0476 -0.11976,-0.036 -0.0312,0.012 -0.0656,-0.006 -0.0796,-0.0427 -0.0565,-0.14654 -0.0933,-3.20741 -0.1029,-8.571558 -0.006,-3.140313 -0.019,-6.389444 -0.0296,-7.220291 l -0.0193,-1.510631 -3.55552,4.044059 c -1.95554,2.22423 -3.79863,4.32481 -4.09574,4.667959 -0.66515,0.768191 -1.47967,1.663742 -1.51321,1.663742 -0.027,0 -4.6008,-5.767787 -4.68889,-5.912967 -0.0514,-0.08472 -0.0317,-0.114868 0.48124,-0.735393 0.29416,-0.35588 0.53483,-0.65691 0.53483,-0.668957 0,-0.01204 0.0404,-0.05937 0.0897,-0.105169 0.0493,-0.04579 1.09109,-1.299874 2.31496,-2.786845 2.33291,-2.834418 6.8782,-8.339813 9.53711,-11.551669 0.86083,-1.039839 1.59313,-1.89684 1.62734,-1.904444 0.0342,-0.0076 0.0736,-0.03197 0.0876,-0.05414 0.0176,-0.02798 1.28613,-0.04553 4.14376,-0.05734 l 4.11836,-0.01701 0.026,2.510057 c 0.0143,1.380533 0.0292,3.360838 0.033,4.400677 0.004,1.039839 0.0163,3.677248 0.0278,5.860913 0.0115,2.183662 0.025,7.095498 0.0302,10.915192 0.005,3.819685 0.02,7.022865 0.0331,7.118165 l 0.0238,0.17328 -3.73911,-0.006 c -2.05651,-0.003 -3.98584,-0.0177 -4.28739,-0.0319 z m -10.25312,-7.637921 0.0839,-0.113438 h -0.19243 c -0.20058,0 -0.20775,0.01408 -0.0818,0.160703 0.0763,0.08882 0.0928,0.08472 0.19038,-0.04726 z m 3.40909,-3.89467 c 0,-0.0208 -0.017,-0.03781 -0.0378,-0.03781 -0.0208,0 -0.0378,0.01701 -0.0378,0.03781 0,0.0208 0.017,0.03781 0.0378,0.03781 0.0208,0 0.0378,-0.01701 0.0378,-0.03781 z m 1.94733,-2.193115 c 0.0376,-0.0416 0.0599,-0.07563 0.0495,-0.07563 -0.0104,0 -0.0497,0.03403 -0.0873,0.07563 -0.0376,0.04159 -0.0599,0.07562 -0.0495,0.07562 0.0104,0 0.0497,-0.03403 0.0874,-0.07562 z m 1.6303,-1.862259 c 1.93968,-2.202995 1.88309,-2.1423 1.95836,-2.100175 0.0377,0.02109 0.0602,0.01934 0.0602,-0.0047 0,-0.08081 -0.15292,-0.125129 -0.2677,-0.07759 -0.19741,0.08177 -0.46111,0.390568 -2.55265,2.989252 -0.14374,0.178605 -0.3767,0.463614 -0.51768,0.633357 -0.57338,0.69038 -0.13939,0.21667 1.31944,-1.440196 z m -8.54428,-1.006372 c 0.0131,-0.0548 0.0477,-0.150686 0.0768,-0.213074 0.0458,-0.09823 0.0322,-0.09062 -0.10187,0.05672 -0.22938,0.25213 -0.24561,0.292222 -0.11021,0.272349 0.0827,-0.01214 0.1176,-0.04205 0.13529,-0.115993 z m 2.06359,-2.484004 c 0.0116,-0.01161 0.0123,-0.05482 0.002,-0.09604 -0.0185,-0.07078 -0.0235,-0.07138 -0.0904,-0.01085 -0.0389,0.03525 -0.0708,0.07847 -0.0708,0.09604 0,0.03547 0.12653,0.04406 0.15974,0.01085 z m 0.47388,-0.719132 c -0.0372,-0.03721 -0.10425,0.01992 -0.10425,0.08885 0,0.05772 0.005,0.05761 0.0639,-0.0013 0.0352,-0.03516 0.0533,-0.07454 0.0403,-0.08751 z m 0.31169,-0.337426 c 0,-0.03119 -0.017,-0.05672 -0.0378,-0.05672 -0.0208,0 -0.0378,0.02553 -0.0378,0.05672 0,0.0312 0.017,0.05672 0.0378,0.05672 0.0208,0 0.0378,-0.02553 0.0378,-0.05672 z m 2.10013,-2.554848 c 0.0407,-0.06585 -0.006,-0.07979 -0.0575,-0.0173 -0.0298,0.03594 -0.0327,0.05763 -0.008,0.05763 0.0221,0 0.0514,-0.01815 0.0651,-0.04033 z m 2.42331,-2.956298 c 0.0599,-0.115792 0.0598,-0.119795 -10e-4,-0.06928 -0.0876,0.0727 -0.15019,0.192169 -0.10061,0.192169 0.021,0 0.0668,-0.0553 0.10171,-0.122888 z m 0.48258,-0.579562 c 0.0306,-0.07982 -0.0273,-0.06516 -0.0808,0.02043 -0.0382,0.06118 -0.037,0.07063 0.007,0.05379 0.0293,-0.01124 0.0625,-0.04464 0.0739,-0.07422 z m 0.26735,-0.256027 c 0.0408,-0.02982 0.0579,-0.07008 0.0413,-0.09699 -0.0213,-0.03451 -0.0464,-0.02975 -0.10031,0.01902 -0.12514,0.113253 -0.0767,0.177218 0.059,0.07797 z m 2.12559,-2.58182 c 0.10921,-0.166679 0.009,-0.14977 -0.14098,0.02379 -0.0808,0.09356 -0.14752,0.184037 -0.14814,0.201049 -0.002,0.0504 0.22369,-0.124986 0.28912,-0.224839 z m 9.14811,-1.586023 c -0.0114,-0.02968 -0.0545,-0.05397 -0.0958,-0.05397 -0.0732,0 -0.073,0.0031 0.008,0.126738 0.0699,0.106371 0.0853,0.115044 0.0958,0.05397 0.007,-0.04002 0.003,-0.09705 -0.008,-0.126735 z"
       id="path5741"
       inkscape:connector-curvature="0" />
    <path
       style="fill:#008080;fill-opacity:1;stroke:#008080;stroke-width:0.03787188;stroke-miterlimit:4;stroke-dasharray:none;stroke-opacity:1"
       d="m 129.37534,105.30507 c -0.33568,-0.0202 -0.52209,-0.0494 -0.62378,-0.0977 -0.0798,-0.0379 -0.17061,-0.0691 -0.20188,-0.0695 -0.0416,-5.3e-4 -0.0647,-0.0666 -0.0862,-0.24649 -0.0351,-0.29384 -0.0846,-6.607659 -0.0982,-12.515887 -0.005,-2.339638 -0.0214,-4.316782 -0.0356,-4.393652 l -0.0259,-0.139763 -1.28562,1.462558 c -0.70709,0.804408 -2.52433,2.875137 -4.03831,4.60162 -2.81442,3.209444 -3.74864,4.254524 -3.80323,4.254524 -0.0515,0 -4.73106,-5.912787 -4.73106,-5.977824 0,-0.06204 1.22252,-1.549268 10.56516,-12.85272 3.68701,-4.460827 3.97517,-4.803224 4.10019,-4.871987 0.0854,-0.04697 0.71197,-0.05904 4.203,-0.08096 2.25645,-0.01418 4.10648,-0.02334 4.11117,-0.02035 0.0255,0.01619 0.0868,9.812292 0.10408,16.619495 0.011,4.315333 0.0289,9.313656 0.04,11.107376 l 0.0201,3.26131 -3.86756,-0.006 c -2.12716,-0.003 -4.08299,-0.0186 -4.34631,-0.0344 z m -10.08333,-7.622805 c 0.10479,-0.09484 0.0842,-0.126484 -0.0821,-0.126484 -0.16694,0 -0.17203,0.0056 -0.10434,0.113951 0.0571,0.09146 0.0963,0.0941 0.18644,0.01254 z m 7.31678,-8.317113 c 0.76587,-0.86541 1.43671,-1.625198 1.49075,-1.688415 0.0648,-0.07574 0.11511,-0.104537 0.14764,-0.08443 0.0326,0.02016 0.0402,0.01572 0.0224,-0.01315 -0.0413,-0.06689 -0.17001,-0.05214 -0.3123,0.0358 -0.0707,0.0437 -0.37136,0.37125 -0.6681,0.727887 -0.68654,0.825095 -2.11206,2.595769 -2.08979,2.595769 0.009,0 0.64354,-0.708062 1.40941,-1.573472 z m -8.846,-0.731153 c -0.004,-0.05571 -0.0175,-0.06381 -0.0544,-0.03318 -0.0576,0.04778 -0.0655,0.08383 -0.011,0.05016 0.0208,-0.01286 0.0378,-0.0053 0.0378,0.01667 0,0.02201 0.007,0.04004 0.0166,0.04004 0.009,0 0.014,-0.03316 0.011,-0.0737 z m 2.04627,-2.476672 c 0.008,-0.0431 -0.005,-0.06129 -0.0378,-0.05045 -0.028,0.0093 -0.0567,0.04727 -0.0639,0.08433 -0.008,0.04311 0.005,0.06129 0.0378,0.05045 0.028,-0.0093 0.0568,-0.04727 0.0639,-0.08433 z m 0.45959,-0.588054 c 0,-0.0208 -0.008,-0.03781 -0.0167,-0.03781 -0.009,0 -0.0272,0.01701 -0.04,0.03781 -0.0129,0.0208 -0.005,0.03781 0.0167,0.03781 0.022,0 0.04,-0.01701 0.04,-0.03781 z m 4.83998,-5.87982 c 0.0271,-0.03269 0.0308,-0.05672 0.009,-0.05672 -0.0211,0 -0.0482,0.02553 -0.0602,0.05672 -0.012,0.03119 -0.0159,0.05672 -0.009,0.05672 0.007,0 0.0343,-0.02553 0.0602,-0.05672 z m 0.78697,-0.924039 c 0.009,-0.02836 -0.005,-0.04254 -0.0331,-0.03309 -0.0273,0.0091 -0.0571,0.03888 -0.0662,0.06617 -0.009,0.02836 0.005,0.04254 0.0331,0.03309 0.0273,-0.0091 0.0571,-0.03888 0.0662,-0.06617 z m 2.08831,-2.500847 c 0.02,-0.03728 0.0363,-0.08038 0.0363,-0.09577 0,-0.03977 -0.18862,0.14165 -0.23311,0.224211 -0.0355,0.06585 -0.0328,0.06603 0.0617,0.0041 0.0544,-0.03562 0.11515,-0.09526 0.13511,-0.132543 z m 9.18686,-1.523899 c 0,-0.0598 -0.10499,-0.15803 -0.13588,-0.127138 -0.0251,0.02514 0.067,0.179226 0.10716,0.179226 0.0158,0 0.0287,-0.02344 0.0287,-0.05209 z"
       id="path5743"
       inkscape:connector-curvature="0" />
    <path
       style="fill:#008080;fill-opacity:1;stroke:#008080;stroke-width:0.03787188;stroke-miterlimit:4;stroke-dasharray:none;stroke-opacity:1"
       d="m 133.21938,105.34291 c -2.69597,-0.0166 -4.17386,-0.0392 -4.2728,-0.0653 -0.38527,-0.10188 -0.45204,-0.14318 -0.48111,-0.29758 -0.0386,-0.20504 -0.10123,-6.920978 -0.10872,-11.659221 -0.003,-2.194059 -0.0168,-4.321003 -0.0296,-4.72654 l -0.0233,-0.737341 -2.05941,2.344365 c -1.13268,1.289401 -2.97806,3.39082 -4.10084,4.669824 -2.22247,2.531697 -2.88219,3.264606 -2.95443,3.282241 -0.0678,0.01654 -4.74419,-5.872094 -4.74286,-5.972305 8e-4,-0.06618 0.47961,-0.653118 4.91472,-6.025681 6.18299,-7.489873 8.91715,-10.791714 9.59419,-11.58616 l 0.10995,-0.129021 0.45121,-0.02796 c 0.24817,-0.01537 2.12952,-0.03885 4.18078,-0.05216 l 3.72956,-0.02421 0.0228,1.221026 c 0.0368,1.968569 0.0671,7.778054 0.12204,23.350696 0.019,5.387817 0.0144,6.437627 -0.0283,6.438067 -0.0281,2.6e-4 -0.085,0.005 -0.12663,0.0116 -0.0416,0.006 -1.93032,-2.7e-4 -4.19717,-0.0143 z m -13.89603,-7.731738 c 0,-0.03634 -0.039,-0.05539 -0.11344,-0.05539 -0.11796,0 -0.14889,0.06286 -0.0698,0.141917 0.0546,0.05458 0.18327,-0.0062 0.18327,-0.08653 z m 7.66664,-8.695508 c 0.66397,-0.748686 1.19276,-1.36697 1.17507,-1.373968 -0.0735,-0.02907 -0.29383,0.149905 -0.57102,0.463799 -0.33966,0.384641 -1.99615,2.417731 -2.04617,2.511361 -0.0184,0.0344 0.027,-0.0055 0.10074,-0.0887 0.0738,-0.08319 0.6774,-0.76381 1.34138,-1.512494 z m -7.2129,-2.741395 c 0,-0.0208 -0.008,-0.03781 -0.0167,-0.03781 -0.009,0 -0.0272,0.01701 -0.04,0.03781 -0.0129,0.0208 -0.005,0.03781 0.0167,0.03781 0.022,0 0.04,-0.01701 0.04,-0.03781 z m 6.09261,-7.401764 c 0.047,-0.05997 0.0457,-0.06131 -0.0143,-0.01429 -0.063,0.0494 -0.083,0.08045 -0.0519,0.08045 0.008,0 0.0376,-0.02978 0.0662,-0.06617 z m 2.11267,-2.554102 c 0,-0.05075 -0.10963,0.04643 -0.15844,0.140454 -0.0365,0.07026 -0.0302,0.06887 0.0588,-0.01294 0.0548,-0.05042 0.0997,-0.107802 0.0997,-0.127521 z m 9.16426,-1.520177 c -0.023,-0.05997 -0.0893,-0.07868 -0.0893,-0.02522 0,0.03999 0.0413,0.08193 0.0807,0.08193 0.0167,0 0.0205,-0.02553 0.009,-0.05672 z"
       id="path5745"
       inkscape:connector-curvature="0" />
    <path
       style="fill:#008080;fill-opacity:1;stroke:#008080;stroke-width:0.03787188;stroke-miterlimit:4;stroke-dasharray:none;stroke-opacity:1"
       d="m 131.7447,105.3457 -2.72249,-0.0226 -0.26215,-0.0937 c -0.22452,-0.0802 -0.26685,-0.10988 -0.2948,-0.20643 -0.0431,-0.14882 -0.0902,-4.19461 -0.098,-8.412532 -0.008,-4.179491 -0.0477,-8.542295 -0.0792,-8.630338 -0.0183,-0.05112 -0.12538,0.0503 -0.47913,0.45375 -4.89952,5.587788 -7.53368,8.576831 -8.43646,9.573037 l -0.18611,0.205365 -0.62503,-0.772549 c -1.76289,-2.178939 -4.11579,-5.186463 -4.11579,-5.260877 0,-0.0811 0.88049,-1.156087 8.54182,-10.428637 4.88241,-5.909204 6.00202,-7.249726 6.09977,-7.303264 0.0974,-0.05337 2.89313,-0.09956 6.34866,-0.104887 l 1.98956,-0.0031 0.0243,0.652264 c 0.0384,1.0291 0.0986,13.330523 0.10877,22.243108 l 0.009,8.12965 -1.5503,0.002 c -0.85267,0.001 -2.77543,-0.008 -4.2728,-0.0205 z m -12.46283,-7.69097 c 0.0335,-0.04033 0.0302,-0.05737 -0.0143,-0.07444 -0.0838,-0.03217 -0.16967,0.0109 -0.14578,0.07315 0.0262,0.06823 0.10399,0.06885 0.16006,0.0013 z m 7.63696,-8.674261 c 1.18681,-1.346782 1.23732,-1.407144 1.17746,-1.407144 -0.0774,0 -0.45617,0.387895 -0.90474,0.926404 -0.71696,0.860716 -1.42257,1.737455 -1.37434,1.707644 0.0247,-0.01524 0.52041,-0.567359 1.10162,-1.226904 z m 10.18101,-14.311233 c -0.0374,-0.03707 -0.0417,-0.03272 -0.0212,0.02117 0.0142,0.03729 0.0353,0.05828 0.047,0.04664 0.0117,-0.01164 3e-5,-0.04215 -0.0258,-0.0678 z"
       id="path5747"
       inkscape:connector-curvature="0" />
    <path
       style="fill:#008080;fill-opacity:1;stroke:#008080;stroke-width:0.03787188;stroke-miterlimit:4;stroke-dasharray:none;stroke-opacity:1"
       d="m 130.70486,105.34604 c -1.73404,-0.0196 -1.7613,-0.021 -1.97799,-0.10848 -0.15881,-0.0641 -0.23012,-0.116 -0.25724,-0.18733 -0.0519,-0.13652 -0.1002,-4.20239 -0.12608,-10.613966 -0.0211,-5.231278 -0.04,-6.447004 -0.0998,-6.447004 -0.0165,0 -1.43837,1.603716 -3.15978,3.563813 -5.44971,6.205358 -5.88751,6.693734 -5.93906,6.625212 -0.0162,-0.02156 -0.57469,-0.719204 -1.24103,-1.550305 -2.4636,-3.072752 -3.51182,-4.431919 -3.46556,-4.493615 0.56492,-0.753543 13.91822,-16.92077 14.48302,-17.535022 l 0.1853,-0.201522 1.56483,-0.02614 c 0.86065,-0.01437 2.73261,-0.02761 4.15992,-0.02941 l 2.5951,-0.0033 0.0243,0.349766 c 0.0349,0.502828 0.0916,10.416868 0.12173,21.30725 l 0.026,9.386913 -2.56768,-0.009 c -1.41223,-0.005 -3.35891,-0.0175 -4.32595,-0.0284 z m -11.41933,-7.718679 c 0,-0.01857 -0.034,-0.03377 -0.0756,-0.03377 -0.0737,0 -0.0985,0.04011 -0.053,0.08562 0.0303,0.03029 0.12864,-0.0093 0.12864,-0.05186 z m 8.00646,-9.087387 c 0.42097,-0.479665 0.76554,-0.885272 0.7657,-0.901348 0.001,-0.120549 -0.48527,0.408517 -1.3866,1.507866 -0.90446,1.103178 -0.73007,0.932826 0.6209,-0.606518 z"
       id="path5749"
       inkscape:connector-curvature="0" />
    <path
       style="fill:#008080;fill-opacity:1;stroke:#008080;stroke-width:0.03787188;stroke-miterlimit:4;stroke-dasharray:none;stroke-opacity:1"
       d="m 130.23221,105.34607 c -1.29329,-0.0194 -1.32799,-0.0219 -1.52346,-0.11024 -0.11001,-0.0497 -0.21772,-0.12345 -0.23936,-0.16388 -0.0521,-0.0973 -0.10018,-3.81938 -0.14351,-11.10834 -0.0198,-3.326381 -0.049,-5.804927 -0.0691,-5.857475 -0.0406,-0.106249 0.0371,-0.191681 -3.8667,4.250451 -3.22824,3.673377 -4.55848,5.175316 -4.91238,5.546437 -0.26442,0.277273 -0.30635,0.307766 -0.35447,0.257757 -0.0755,-0.07849 -2.48008,-3.09127 -3.2593,-4.083733 -1.08499,-1.381897 -1.46055,-1.890754 -1.43141,-1.939443 0.0853,-0.142497 1.78653,-2.218402 6.15755,-7.51364 6.2259,-7.542324 8.37077,-10.120127 8.49066,-10.204463 0.0609,-0.04286 0.79088,-0.05531 4.20913,-0.07179 l 4.13544,-0.01995 0.0246,0.204134 c 0.0417,0.34562 0.096,9.652868 0.11748,20.131238 0.0113,5.490347 0.0288,10.148547 0.039,10.351547 l 0.0185,0.36908 -3.03466,-0.009 c -1.66906,-0.005 -3.6302,-0.0179 -4.35808,-0.0288 z m -10.98449,-7.714663 c 0,-0.0208 -0.016,-0.03781 -0.0356,-0.03781 -0.0196,0 -0.0461,0.01701 -0.059,0.03781 -0.0129,0.0208 0.003,0.03781 0.0356,0.03781 0.0324,0 0.0589,-0.01701 0.0589,-0.03781 z m 7.98419,-9.039831 c 0.77435,-0.883446 0.97573,-1.1475 0.51703,-0.677939 -0.23208,0.237575 -0.45823,0.501825 -1.2757,1.490633 -0.0331,0.03997 -0.0405,0.06125 -0.0165,0.0473 0.024,-0.01394 0.37279,-0.40095 0.77515,-0.859994 z"
       id="path5751"
       inkscape:connector-curvature="0" />
    <path
       style="fill:#008080;fill-opacity:1;stroke:#008080;stroke-width:0.03787188;stroke-miterlimit:4;stroke-dasharray:none;stroke-opacity:1"
       d="m 129.89189,105.34707 c -0.94076,-0.0192 -1.03478,-0.0272 -1.19731,-0.10237 -0.097,-0.0448 -0.19585,-0.11793 -0.21967,-0.16243 -0.0626,-0.11703 -0.10541,-2.99582 -0.15119,-10.173351 -0.0368,-5.774233 -0.0537,-6.806221 -0.11139,-6.806221 -0.0656,0 -0.26583,0.223784 -4.14364,4.632012 -4.3343,4.927153 -4.81597,5.463882 -4.90337,5.463882 -0.071,0 -4.57146,-5.697239 -4.7207,-5.976094 -0.0287,-0.05357 -0.007,-0.108003 0.10174,-0.250761 0.56065,-0.738839 12.86591,-15.639024 14.22481,-17.224534 0.15516,-0.181028 0.30914,-0.339833 0.34219,-0.352901 0.0707,-0.02796 8.2943,-0.09466 8.3221,-0.0675 0.0554,0.05413 0.0943,6.191245 0.16681,26.320138 l 0.0171,4.736 -3.35325,-0.008 c -1.84429,-0.004 -3.81268,-0.0169 -4.37419,-0.0284 z m -10.64417,-7.694526 c 0,-0.0092 -0.017,-0.02719 -0.0378,-0.04004 -0.0208,-0.01286 -0.0378,-0.0053 -0.0378,0.01667 0,0.02201 0.017,0.04004 0.0378,0.04004 0.0208,0 0.0378,-0.0075 0.0378,-0.01667 z m 8.30641,-9.455316 0.28383,-0.34031 -0.25865,0.268185 c -0.14226,0.147499 -0.3664,0.402732 -0.4981,0.567184 l -0.23945,0.299 0.21427,-0.226872 c 0.11785,-0.124783 0.34199,-0.380016 0.4981,-0.567187 z"
       id="path5753"
       inkscape:connector-curvature="0" />
    <path
       style="fill:none;stroke:#008080;stroke-width:0.26458332px;stroke-linecap:butt;stroke-linejoin:miter;stroke-opacity:1"
       d="m 137.5568,105.34512 c -9.29424,0.0305 -9.33205,0.0305 -9.33205,0.0305 l 0.079,-17.518722"
       id="path5755"
       inkscape:connector-curvature="0" />
    <path
       style="fill:#008080;fill-opacity:1;stroke:#008080;stroke-width:0.03787188;stroke-miterlimit:4;stroke-dasharray:none;stroke-opacity:1"
       d="m 128.10971,104.14746 c 0.0317,-1.82332 0.0771,-16.006948 0.0512,-16.006948 -0.0274,0 -1.23277,1.357976 -4.26266,4.802166 -2.10393,2.391624 -3.59203,4.070231 -4.50176,5.078077 -0.11574,0.128217 -0.19214,0.183792 -0.23176,0.168587 -0.0822,-0.03155 -1.81324,-2.182884 -3.58297,-4.452977 -0.93266,-1.196359 -1.18475,-1.54304 -1.16307,-1.599536 0.0203,-0.05284 0.74299,-0.948518 1.9889,-2.464919 2.01745,-2.455434 5.95825,-7.2296 8.97342,-10.871047 l 1.29933,-1.569212 5.41062,-0.0096 5.41062,-0.0096 0.0236,3.355973 c 0.0229,3.254541 0.0355,6.039498 0.085,18.734259 0.02,5.137807 0.0157,6.046517 -0.0292,6.091387 -0.0443,0.0443 -0.81257,0.0572 -4.77378,0.0804 l -4.72104,0.0276 z m 0.27907,-0.986 c -0.006,-0.32755 -0.0114,-0.0596 -0.0114,0.59555 0,0.65509 0.005,0.92309 0.0114,0.59554 0.006,-0.32755 0.006,-0.86354 0,-1.19109 z"
       id="path5757"
       inkscape:connector-curvature="0" />
    <path
       style="fill:none;stroke:#008080;stroke-width:0.26458332px;stroke-linecap:butt;stroke-linejoin:miter;stroke-opacity:1"
       d="m 109.64764,74.505649 c 1.3683,1.564121 1.3683,1.564121 1.3683,1.564121 -0.31721,0.247092 -0.13545,-0.02577 -0.38145,0.220229 -0.246,0.245999 0.38145,-0.220229 0.38145,-0.220229"
       id="path5761"
       inkscape:connector-curvature="0" />
    <rect
       style="fill:#008080;fill-opacity:1;stroke:#008080;stroke-width:0.26499999;stroke-miterlimit:4;stroke-dasharray:none;stroke-opacity:1"
       id="rect5763"
       width="0.6953342"
       height="0.16884351"
       x="110.09373"
       y="75.919838" />
    <rect
       style="fill:#008080;fill-opacity:1;stroke:#008080;stroke-width:0.26499999;stroke-miterlimit:4;stroke-dasharray:none;stroke-opacity:1"
       id="rect5765"
       width="1.8528044"
       height="1.4935873"
       x="101.7561"
       y="74.672028" />
    <rect
       style="fill:#008080;fill-opacity:1;stroke:#008080;stroke-width:0.26499999;stroke-miterlimit:4;stroke-dasharray:none;stroke-opacity:1"
       id="rect5767"
       width="0.40975505"
       height="2.1061001"
       x="66.842598"
       y="77.065598" />
    <rect
       style="fill:#008080;fill-opacity:1;stroke:#008080;stroke-width:0.28980875;stroke-miterlimit:4;stroke-dasharray:none;stroke-opacity:1"
       id="rect5771"
       width="1.4468557"
       height="1.964875"
       x="5.3809843"
       y="105.61967"
       ry="0"
       transform="matrix(0.74233411,-0.6700299,0.66184393,0.74964166,0,0)"
       inkscape:transform-center-x="0.49237629"
       inkscape:transform-center-y="0.7146092" />
  </g>
</svg>
